<?xml version="1.0" encoding="utf-8"?>
<!-- Generator: Adobe Illustrator 18.1.1, SVG Export Plug-In . SVG Version: 6.00 Build 0)  -->
<svg version="1.1" id="Ebene_1" xmlns="http://www.w3.org/2000/svg" xmlns:xlink="http://www.w3.org/1999/xlink" x="0px" y="0px"
	 viewBox="0 0 64 570" enable-background="new 0 0 64 570" xml:space="preserve">
<g>
	<circle fill="#6294BD" cx="32" cy="38" r="31"/>
	<g>
		<circle fill="none" stroke="#FFD364" stroke-miterlimit="10" cx="32" cy="38" r="31"/>
		<circle fill="none" stroke="#FFD364" stroke-miterlimit="10" cx="32" cy="38" r="23.5"/>
		<path id="SVGID_x5F_1_x5F_" fill="none" d="M57.6,38.4c0,14-11.4,25.4-25.4,25.4S6.9,52.4,6.9,38.4S18.2,13,32.2,13
			S57.6,24.4,57.6,38.4z"/>
		<text>		<textPath  xlink:href="#SVGID_x5F_1_x5F_" startOffset="76.172%">
<tspan  fill="#FFD364" font-family="'Arial-BoldMT'" font-size="7.1132">K</tspan><tspan  fill="#FFD364" font-family="'ArialMT'" font-size="7.1132">unst</tspan><tspan  fill="#FFD364" font-family="'Arial-BoldMT'" font-size="7.1132">T</tspan><tspan  fill="#FFD364" font-family="'ArialMT'" font-size="7.1132">urn</tspan><tspan  fill="#FFD364" font-family="'Arial-BoldMT'" font-size="7.1132">V</tspan><tspan  fill="#FFD364" font-family="'ArialMT'" font-size="7.1132">ereinigung</tspan>		</textPath>
</text>
		<path id="SVGID_x5F_2_x5F_" fill="none" d="M1,37.7c0.7,17.1,15.1,30.4,32.2,29.7S63.7,52.3,63,35.2"/>
		<text>		<textPath  xlink:href="#SVGID_x5F_2_x5F_" startOffset="22.189%">
<tspan  fill="#FFD364" font-family="'Arial-BoldMT'" font-size="6.5901">Ruhr-West e.V.</tspan>		</textPath>
</text>
	</g>
	<g>
		<polygon fill="none" stroke="#FFD364" stroke-miterlimit="10" points="26.4,28.4 46.5,26.9 32.8,29.6 31,41.9 31.4,29.2 
			23.6,29.4 32.8,22.3 		"/>
		<circle fill="none" stroke="#FFD364" stroke-miterlimit="10" cx="22.4" cy="28.7" r="1.2"/>
	</g>
	<g>
		<line fill="none" stroke="#FFD364" stroke-width="2" stroke-miterlimit="10" x1="15.5" y1="53.2" x2="24.7" y2="44"/>
		<polygon fill="#6294BD" stroke="#FFD364" stroke-miterlimit="10" points="18.6,46.1 26.3,51.4 19.7,44.9 26.3,38.2 19.6,42.8 
			18.3,36.3 18.3,43.5 		"/>
		<circle fill="none" stroke="#FFD364" stroke-miterlimit="10" cx="18.9" cy="35.4" r="1.2"/>
		<line fill="none" stroke="#FFD364" stroke-miterlimit="10" x1="18.3" y1="42.8" x2="18.3" y2="50.2"/>
	</g>
	<g>
		<circle fill="none" stroke="#FFD364" stroke-miterlimit="10" cx="39.1" cy="35.5" r="1.2"/>
		<line fill="none" stroke="#FFD364" stroke-miterlimit="10" x1="41.3" y1="47.9" x2="41.9" y2="51.1"/>
		<polygon fill="none" stroke="#FFD364" stroke-miterlimit="10" points="41.6,49.7 39.1,36.6 42.6,45.3 50.6,36.9 		"/>
		<line fill="none" stroke="#FFD364" stroke-miterlimit="10" x1="36.9" y1="51.5" x2="48.6" y2="46"/>
		<line fill="none" stroke="#FFD364" stroke-miterlimit="10" x1="37.6" y1="53.1" x2="49.3" y2="47.6"/>
	</g>
</g>
<g>
	<polygon points="0.9,124.8 3.8,124.8 3.8,120.6 10,120.6 10,118.5 3.8,118.5 3.8,116.2 10.5,116.2 10.5,114.1 0.9,114.1 	"/>
	<g>
		<path d="M12,121c0,1.2,0.1,4.1,5.6,4.1c5.5,0,5.6-2.9,5.6-4.1v-6.9h-2.9v6.1c0,1,0,2.8-2.7,2.8c-2.7,0-2.7-1.8-2.7-2.8v-6.1H12
			V121z"/>
	</g>
	<polygon points="25.4,124.8 34.8,124.8 34.8,122.7 28.3,122.7 28.3,114.1 25.4,114.1 	"/>
	<g>
		<path d="M46,119.4c0,2.3-0.9,3.4-2.9,3.4h-3.3v-6.6h3C45.1,116.2,46,117.4,46,119.4 M49,119.5c0-3.2-1.6-5.3-5.4-5.3h-6.8v10.7
			h7.1C47.3,124.8,49,122.7,49,119.5"/>
	</g>
	<path d="M58,120.7h-3.5l1.8-4.2L58,120.7z M63.1,124.8l-5-10.7h-3.7l-5,10.7h3.3l0.9-2.2h5.2l0.9,2.2H63.1z"/>
	<polygon points="46.9,104.6 46.8,104.3 46.8,104.3 43.7,89.1 37.5,89.1 41.7,104.6 	"/>
	<polygon points="31.2,94.2 36.3,94.2 36.3,89.1 20.2,89.1 20.2,94.2 25.4,94.2 25.4,104.6 31.2,104.6 	"/>
	<polygon points="11.9,98.8 19,89.1 12.2,89.1 6.8,98 6.8,89.1 1,89.1 1,104.6 6.9,104.6 7.9,103.1 8.8,104.6 15.5,104.6 	"/>
	<rect x="25.4" y="105.9" fill="#DD0B2F" width="5.8" height="5.3"/>
	<polygon fill="#DD0B2F" points="12.4,111.2 19.6,111.2 16.3,105.9 9.5,105.9 	"/>
	<rect x="1" y="105.9" fill="#DD0B2F" width="5.7" height="5.3"/>
	<g>
		<polyline fill="#DD0B2F" points="47.1,105.8 41.9,105.8 43.4,111.2 48.8,111.2 		"/>
	</g>
	<path fill="#DD0B2F" d="M51.9,106.2c-0.2,0.5-0.4,1.1-0.6,1.6c-0.1,0.3-0.2,0.7-0.4,1c-0.2,0.5-0.6,0.8-0.8,0.6
		c-0.3-0.2-0.1-1.2,0.1-1.8c0.2-0.6,0.4-1.3,0.6-1.9C51.2,105.9,51.5,106,51.9,106.2z"/>
	<path stroke="#000000" stroke-miterlimit="10" d="M52.8,97.5c0.1-0.7,0.5-1.4,0.9-2c0.2-0.3,0.4-0.5,0.7-0.7
		c0.5-0.4,0.8-1.1,1.1-1.7c0.2-0.3,0.3-0.5,0.4-0.8c0.3-0.6,0.5-1.2,0.8-1.7c0.5-0.7,0.9-1.5,1.4-2.2c0.5-0.7,1.1-1.4,1.5-2.1
		c0.5-0.8,0.9-1.7,1.4-2.5c0.2-0.4,0.5-0.8,0.7-1.3c0.1-0.2,0.2-0.5,0.3-0.7c0.2-0.2,0.6-0.4,0.7-0.1c0.1,0.2-0.1,0.9-0.2,1.1
		c-0.1,0.3-0.1,0.6,0,1c0.1,0.4,0.1,0.5-0.2,0.8c-0.7,0.5-0.9,1.2-1.2,2c-0.2,0.4-0.4,0.9-0.6,1.3c-0.3,0.3-0.6,0.6-0.8,1
		c-0.2,0.4-0.4,0.8-0.5,1.2c-0.2,0.5-0.3,1-0.4,1.4c-0.1,0.3-0.2,0.5-0.1,0.7c0,0.2,0.1,0.5,0.1,0.7c0,0.2-0.1,0.5-0.2,0.7
		c-0.2,0.5-0.8,0.8-1.1,1.2c-0.3,0.4-0.6,0.8-0.9,1.2c-0.2,0.4-0.4,0.9-0.5,1.3c-0.3,0.8-0.6,1.6-1.1,2.3c-0.2,0.3-0.5,0.5-0.6,0.8
		c0.2,0.2,0.4,0.7,0.5,1c0.1,0.4-0.1,0.8-0.3,1.1c-0.3,0.3-1,0.7-1.4,0.9c-0.2,0.1-0.4,0-0.5,0.1c-0.3,0.2-0.3,0.8-0.4,1.1
		c0,0.1-0.1,0.2-0.1,0.4c-0.3-0.1-0.6-0.2-0.9-0.3c0-0.1,0-0.2,0.1-0.3c0.1-0.4,0.1-0.8,0.2-1.1c0-0.2,0.1-0.3,0.1-0.5
		c0-0.2-0.1-0.3-0.1-0.4c0-0.4,0.2-1,0.3-1.4c0.1-0.4,0.1-0.8,0.4-1.1c0.2-0.3,0.5-0.4,0.6-0.7C52.9,98.4,52.7,97.9,52.8,97.5z"/>
	<g>
		<polyline fill="#DD0B2F" points="47.1,108.5 51.1,108.5 50,111.2 45.9,111.2 		"/>
	</g>
</g>
<g>
	<g>
		<g>
			<path fill="#27348B" stroke="#27348B" stroke-miterlimit="10" d="M24.7,150.3l0.1,25.8l-4.6,3.4l-4.4-28.8l-12-3.8l4.6-3.6H32
				l-0.1,6.9l-4.5,3.9L24.7,150.3z"/>
		</g>
		<g>
			<path fill="#FFFFFF" stroke="#27348B" stroke-miterlimit="10" d="M20.2,154.2v25.4h-9v-25.4H3.9v-7.3h23.5v7.3H20.2z"/>
		</g>
	</g>
	<g>
		<g>
			<path fill="#27348B" d="M47,159.3h13.1v1c0,2.4-0.3,4.5-0.8,6.3c-0.5,1.7-1.5,3.3-2.8,4.8c-3,3.3-6.7,5-11.3,5
				c-4.4,0-8.3-1.6-11.4-4.8c-3.2-3.2-4.8-7.1-4.8-11.6c0-4.6,1.6-8.5,4.8-11.7c3.2-3.2,7.1-4.8,11.8-4.8c2.5,0,4.8,0.5,7,1.5
				c2.1,1,4.1,2.7,6.1,4.9l-3.4,3.3c-2.6-3.5-5.8-5.2-9.5-5.2c-3.4,0-6.2,1.2-8.5,3.5c-2.3,2.3-3.4,5.1-3.4,8.6
				c0,3.5,1.3,6.5,3.8,8.7c2.4,2.1,4.9,3.2,7.7,3.2c2.4,0,4.5-0.8,6.4-2.4c1.9-1.6,2.9-3.5,3.1-5.7l-11.3-1.4L47,159.3z"/>
		</g>
		<g>
			<path fill="#F6F6F6" stroke="#27348B" stroke-miterlimit="10" d="M43.7,162.4h13.1v1c0,2.4-0.3,4.5-0.8,6.3
				c-0.5,1.7-1.5,3.3-2.8,4.8c-3,3.3-6.7,5-11.3,5c-4.4,0-8.3-1.6-11.4-4.8c-3.2-3.2-4.8-7.1-4.8-11.6c0-4.6,1.6-8.5,4.8-11.7
				c3.2-3.2,7.1-4.8,11.8-4.8c2.5,0,4.8,0.5,7,1.5c2.1,1,4.1,2.7,6.1,4.9l-3.4,3.3c-2.6-3.5-5.8-5.2-9.5-5.2c-3.4,0-6.2,1.2-8.5,3.5
				c-2.3,2.3-3.4,5.1-3.4,8.6c0,3.5,1.3,6.5,3.8,8.7c2.4,2.1,4.9,3.2,7.7,3.2c2.4,0,4.5-0.8,6.4-2.4c1.9-1.6,2.9-3.5,3.1-5.7h-7.9
				V162.4z"/>
		</g>
	</g>
	<g>
		<path fill="#27348B" d="M11.1,180.3c-0.4-0.5-0.8-0.8-1.4-1.1c-0.6-0.3-1.1-0.4-1.7-0.4c-0.3,0-0.6,0-0.8,0.1
			c-0.3,0-0.5,0.1-0.8,0.3c-0.2,0.1-0.4,0.3-0.6,0.5c-0.2,0.2-0.2,0.5-0.2,0.8c0,0.3,0.1,0.5,0.2,0.7c0.1,0.2,0.3,0.4,0.5,0.5
			c0.2,0.1,0.5,0.3,0.8,0.4c0.3,0.1,0.7,0.3,1.1,0.4c0.6,0.2,1.2,0.4,1.8,0.7c0.6,0.2,1.2,0.6,1.7,0.9c0.5,0.4,1,0.9,1.3,1.5
			c0.3,0.6,0.5,1.3,0.5,2.2c0,1-0.2,1.9-0.6,2.6c-0.4,0.7-0.9,1.3-1.5,1.8c-0.6,0.5-1.3,0.8-2.1,1.1c-0.8,0.2-1.6,0.3-2.5,0.3
			c-1.2,0-2.5-0.2-3.6-0.7c-1.2-0.4-2.1-1.1-2.9-1.9l2.8-2.8c0.4,0.5,1,1,1.7,1.3c0.7,0.4,1.4,0.5,2.1,0.5c0.3,0,0.6,0,0.9-0.1
			c0.3-0.1,0.6-0.2,0.8-0.3c0.2-0.1,0.4-0.3,0.5-0.6c0.1-0.2,0.2-0.5,0.2-0.9c0-0.3-0.1-0.6-0.2-0.8c-0.2-0.2-0.4-0.4-0.7-0.6
			c-0.3-0.2-0.7-0.4-1.1-0.5c-0.5-0.2-1-0.3-1.5-0.5c-0.6-0.2-1.1-0.4-1.6-0.6c-0.5-0.2-1-0.6-1.4-0.9c-0.4-0.4-0.8-0.9-1-1.4
			c-0.3-0.6-0.4-1.2-0.4-2c0-1,0.2-1.8,0.6-2.5s0.9-1.3,1.6-1.7c0.6-0.4,1.4-0.8,2.2-1c0.8-0.2,1.6-0.3,2.4-0.3c1,0,2,0.2,3,0.5
			c1,0.4,1.9,0.9,2.7,1.6L11.1,180.3z"/>
	</g>
	<g>
		<path fill="#27348B" d="M44.4,193.7l-2.3-3.4h-6.4v3.4h-3.3v-17.4H37l12.2,17.4H44.4z M35.7,180.9v6h4L35.7,180.9z"/>
	</g>
	<g>
		<path fill="#27348B" d="M14,193.7l12.2-17.4h4.6v17.4h-3.3v-3.4h-6.4l-2.3,3.4H14z M23.5,186.9h4v-6L23.5,186.9z"/>
	</g>
	<g>
		<path fill="#27348B" d="M58.6,193.7l-3.8-6.9h-0.5v6.9h-4.3l0-17.4h5.8c0.8,0,1.7,0.1,2.5,0.3c0.8,0.2,1.5,0.5,2.1,0.9
			c0.6,0.4,1.1,1,1.5,1.6c0.4,0.7,0.6,1.5,0.6,2.5c0,1.2-0.3,2.2-1,3c-0.6,0.8-1.5,1.4-2.7,1.7l4.6,7.5H58.6z M58.4,181.6
			c0-0.4-0.1-0.7-0.3-1c-0.2-0.3-0.4-0.5-0.7-0.6c-0.3-0.1-0.6-0.2-0.9-0.3c-0.3,0-0.7-0.1-1-0.1h-1.3l0,4.1h1c0.3,0,0.7,0,1.1-0.1
			c0.4-0.1,0.7-0.2,1-0.3c0.3-0.1,0.5-0.4,0.7-0.6C58.3,182.4,58.4,182,58.4,181.6z"/>
	</g>
</g>
<g>
	<g>
		<polygon fill="#E52620" points="0.5,214 56.2,224.8 4.9,253.9 		"/>
		<polygon fill="#F3E600" points="14.8,253.6 39.2,214.3 63.5,253.6 		"/>
	</g>
	<polygon stroke="#000000" stroke-miterlimit="10" points="2.2,219 4.7,217.4 7.5,216 10.1,215.1 13,214.1 15.1,213.4 17.8,212.7 
		17.8,210.7 18.7,210.7 19.4,212 21.6,211.7 24.9,211.1 27.8,210.7 31.4,210.3 33.9,210 35.5,212.5 32.2,212.9 28.8,213.4 
		23.8,214.2 20,215.1 19.5,218.3 18.7,224.8 15.4,247.2 13.1,244.9 16,224.3 16.7,219.9 17.3,215.9 14,216.8 10.9,217.9 8.2,219.1 
		4.1,221.3 	"/>
	<polygon stroke="#000000" stroke-miterlimit="10" points="35.4,218.8 37.3,221.5 35.4,221.8 33.4,222.4 30.4,223.2 28,224.3 
		26.2,225.2 25.1,225.9 24,226.8 23.1,227.9 22.3,229.9 22.3,231.1 22.6,232.3 23.1,233 24.3,234.3 25.9,235.5 27.2,236.5 
		28.5,237.6 29.8,239.3 30.9,241 31.4,242.7 31.7,244.7 31.7,246.5 31.4,247.7 30.9,249.3 29.8,250.8 28.8,252.1 27.3,253.5 
		26.1,254.3 24.6,255.1 23.6,255.7 22.3,256.1 20.6,256.8 18.8,257.3 16.4,257.7 13.9,255.1 16.3,254.6 17.8,254.2 19.1,253.8 
		20.9,253 22.7,252.2 25.3,250.3 27.3,248.5 28.2,247.2 28.5,246.5 29,245.2 29.3,243.8 29.4,241.8 29.3,240.9 28.9,240.2 
		28.3,239.1 27.6,238.4 26.3,237.4 25.6,236.8 24.6,236 22.3,233.7 21.3,232.4 20.5,231 20.1,229.8 19.9,228.1 20,226.7 20.5,225.6 
		21.3,224.6 22.4,223.6 23.5,222.9 25.1,221.9 27.2,221 29.8,220.3 31.5,219.7 32.8,219.4 34.2,219.1 	"/>
	<polygon stroke="#000000" stroke-miterlimit="10" points="55.3,219.1 54,217.9 52.7,217.2 51.2,216.8 49.3,216.7 47.6,217 
		46.4,217.5 45.1,218 43,219.7 41.6,221.1 39.6,223.4 38.4,225.6 37.1,228.6 36.1,231 35.4,233.2 34.8,235.6 34.6,237.7 34.7,239.9 
		34.8,241.4 35.3,243.1 36.4,245.5 37.6,246.7 38.9,247.6 40.3,248.3 41.5,248.6 43,248.6 45.1,248.3 46.7,247.6 48.2,246.7 
		49.6,245.3 50.7,243.9 51.6,242.4 52.4,240.3 52.8,238.5 52.7,236.5 52.3,235.3 51.6,234.7 50.6,234.6 49.3,234.9 48.3,235.6 
		47.6,236.7 47.1,238 46.7,239.6 47.6,239.4 48.8,239 49.3,239 50.1,239.2 50.6,240.1 50.5,241.1 49.8,242.1 49.4,242.4 48.5,243.2 
		47.6,243.7 46.1,244.1 45.1,244.2 43.8,244.2 42.6,244.1 41.5,243.7 40.3,243 39.2,242.4 38.4,241.4 37.7,240.2 37.2,239.1 
		36.9,237.8 36.8,236.6 36.8,235.7 36.8,234.9 36.8,233.8 36.8,232.6 37,231.5 37.2,230.1 37.8,228.6 38.4,227.5 39.1,226.5 
		39.6,225.7 40.6,224.7 41.6,223.8 42.6,223.2 43.3,222.7 44.6,222 46.1,221.3 47.3,221.1 48.3,221.1 49.4,221.2 50.4,221.5 
		51.4,221.9 52.3,222.3 53.2,222.9 	"/>
</g>
<g>
	<text transform="matrix(1 0 0 0.85 0.5001 293.2664)" fill="#98191D" font-family="'Helvetica-Bold'" font-size="18.8162">KTV</text>
	<text transform="matrix(1 0 0 0.85 0.5001 305.7161)" fill="#314D68" font-family="'Helvetica'" font-size="9.9456">HOHENLOHE</text>
	<g>
		<path fill="#BE1622" stroke="#BE1622" stroke-miterlimit="10" d="M44.9,283.2l3.5-4.2c0,0,2.1-2.7,2.5-2.4c0.6,0.4,0.5,2,0.9,2.5
			c0.4,0.5,3.9-1.3,4.6-1.5c1.1-0.4,2.4-0.7,2.8-0.7c0.5-0.1,2.7-0.4,3.5-0.3c0.7,0.1-2.2,0.9-4.5,1.9c-1,0.5-2.8,1.2-3.7,1.6
			c-0.5,0.2-2.1,0.7-2.2,1.3c-0.2,1-0.1,1.6-0.2,2.4c-0.1,1-0.5,2.1-1.2,3.3c-0.5,1-1.2,2-1.5,2.7c-0.3,0.5-1.4,1.9-1.4,1.9
			l-1.3,1.7c0,0-1.1,1.1-1.4,1.4c-0.4,0.4-1.6,1.7-1.7,1.4c-0.1-0.2,2.7-4.1,2.7-4.1l1.7-2.9l1.3-3.9c0,0,0.5-2.4,0.4-3.2
			c-0.1-0.9-0.8-0.5-1.1-0.4c-0.3,0.1-1,0.8-1,0.8l-1.1,1c0,0-1.9,1.8-2.4,1.2C43.9,284.5,44.9,283.2,44.9,283.2z"/>
		<circle fill="#BE1622" stroke="#BE1622" stroke-miterlimit="10" cx="46.4" cy="288.6" r="1.1"/>
	</g>
</g>
<g>
	<path fill="#FBC019" stroke="#3C3C3B" stroke-width="2" stroke-miterlimit="10" d="M62.3,326.8H1.7V371h0c0,0.2,0,0.5,0,0.7
		C1.7,388.4,15.3,402,32,402s30.3-13.6,30.3-30.3c0-0.2,0-0.5,0-0.7h0V326.8z"/>
	<polygon fill="#E84031" points="12,330.5 50.5,330.5 50.5,342.6 43.4,342.6 43.4,337.4 35.6,337.2 35.7,363.4 28.4,363.4 
		28.2,337.4 19.8,337.3 19.8,342.5 12,342.5 	"/>
	<polygon fill="#E84031" points="8.9,350.9 23.5,350.9 29.4,374.1 33.4,374.1 40.8,350.9 54.3,350.9 54.3,357.4 45.6,357.5 
		36.9,382.2 25.6,382.2 18,357.3 8.9,357.2 	"/>
	<path id="SVGID_x5F_3_x5F_" fill="none" d="M1.7,371.8C2.3,388,15.7,400.9,32,400.9c16.2,0,29.4-12.7,30.2-28.6"/>
	<text>	<textPath  xlink:href="#SVGID_x5F_3_x5F_" startOffset="14.071%">
<tspan  font-family="'Arial-BoldMT'" font-size="11.0315">HÖSBACH</tspan>	</textPath>
</text>
	<text transform="matrix(1 0 0 1 3.3942 368.1778)" font-family="'Arial-BoldMT'" font-size="11.0315">18</text>
	<text transform="matrix(1 0 0 1 47.0055 368.1778)" font-family="'Arial-BoldMT'" font-size="11.0315">95</text>
	<text transform="matrix(1 0 0 1 14.3327 377.2608)" font-family="'ArialMT'" font-size="11.0315">e.</text>
	<text transform="matrix(1 0 0 1 41.3991 377.2608)" font-family="'ArialMT'" font-size="11.0315">v.</text>
</g>
<g>
	<path fill="#DD363A" d="M0.5,447.7c0,17.4,14.1,31.5,31.5,31.5c17.4,0,31.5-14.1,31.5-31.5S49.4,416.2,32,416.2
		C14.6,416.2,0.5,430.3,0.5,447.7"/>
	<path fill="#FFFFFF" d="M1.5,447.7c0-16.8,13.7-30.5,30.5-30.5c16.8,0,30.5,13.7,30.5,30.5c0,16.8-13.7,30.5-30.5,30.5
		C15.2,478.1,1.5,464.5,1.5,447.7"/>
	<path fill="#DD363A" d="M2.9,447.7c0,16,13,29.1,29.1,29.1c16,0,29.1-13,29.1-29.1c0-16-13-29.1-29.1-29.1
		C16,418.6,2.9,431.6,2.9,447.7"/>
	<path fill="#FFFFFF" d="M7.8,447.7c0-13.3,10.8-24.2,24.2-24.2c13.3,0,24.2,10.8,24.2,24.2c0,13.3-10.8,24.2-24.2,24.2
		C18.7,471.9,7.8,461,7.8,447.7"/>
	<path fill="#DD363A" d="M44,449c1,0.4,3.5,1.6,7.7,1.7c2.8,0.1,3.9-1.7,3-2c-0.4-0.1-8.4-2.4-8.4-2.4s-1-0.4-0.3-0.5
		c0.7-0.1,4.1,0,5.5-0.6c1.7-0.7,2.1-2.3,1.6-2.3c-3.5,0.2-6.8,0.1-7,0.1c0,0,0,0-0.1,0c0,0-0.4-0.1,0-0.4c0.4-0.3,2.9-2.4,3.4-3
		c1.4-1.4,0.4-3.4,0.2-3.2c-2.3,2.2-5.3,3.9-5.5,4c-0.2,0-0.1-0.4,0-0.7c0.1-0.3,0.9-1.2,1.2-2.2c0.7-2.5,0.5-4.1-0.9-4.7
		c-0.3-0.1-0.4,0-0.7,0.8c-0.3,0.8-0.5,2.2-1.7,2.7c-0.7,0.3-1.9,1.4-1.9,1.8c0,0.4,0.2,1.1-0.1,1.4c-0.3,0.2-0.7-0.1-1.1,0.2
		c-0.4,0.3-1.6,1.5-2,1.8c-0.4,0.3-1.2,0.8-1.7,0.5c-1.1-1.1-0.6-4.4-0.6-4.4s0.4,0.1,0.8,0c1.1-0.2,1.2-1.5,1.1-1.7
		c-0.1,0.1-0.4,0.4-0.9,0.4c-0.5,0-0.6-0.1-0.7-0.6c-0.1-0.4-0.2-0.6,0-1.3c0.2-0.7,0.9-1,1.3-1.3c0.4-0.3,0.2-1.5,0.2-1.5
		s-0.2,0.4-0.4,0.6c-0.4,0.4-0.9,0.3-2,0.2c-1.1-0.1-1.6-0.5-1.7-0.7c-0.2-0.2-1.6-0.1-2,0c-0.4,0-2.2,0.4-2.9,0.6
		c-0.7,0.3-1.6,0.6-1.8,0.8c-0.2,0.2-0.2,0.4-0.2,0.4l0.2,0.6c0,0,0.8-0.6,1.6-0.8c0.8-0.2,0.9,0.2,1,0.5c0.1,0.4,0.1,0.5,0.2,0.8
		c-0.3,0.1-1.5,0.2-2.6,0.2c-1.3-0.1-1.3-0.6-1.3-0.9c0-0.1-0.4,0-0.5,0.3c-0.3,0.6-0.3,1.5,2.2,1.5c1,0,2-0.4,2.3-0.5
		c0.2,0.7,0,0.8-0.3,0.8c-1.2,0.2-1.9-0.1-1.9-0.1s-0.2,0.6,0,0.7c0.7,0.6,2.3,0.6,2.5,0.5c0.3,0,0.5-0.2,0.6-0.1
		c0.1,0.1,0.3,0.8,0.4,1c0,0.2,0,0.4-0.7,0.3c-0.6,0-0.9,0-0.8,0.1c0,0.1,0.7,0.6,0.8,0.8c0.1,0.1,0.8-0.5,0.8-0.5s0,0.1,0,0.4
		c0.1,0.3,0.2,2.4-1.1,3c-0.5,0.3-1.3-0.2-1.7-0.5c-0.4-0.3-1.6-1.5-2-1.8c-0.4-0.3-0.9,0-1.1-0.2c-0.3-0.2-0.1-0.9-0.1-1.4
		c0-0.4-1.2-1.6-1.9-1.8c-1.3-0.5-1.4-1.9-1.7-2.7c-0.3-0.8-0.4-0.9-0.7-0.8c-1.4,0.6-1.6,2.2-0.9,4.7c0.3,1,1.1,1.9,1.2,2.2
		c0.1,0.3,0.2,0.7,0,0.7c-0.2,0-3.2-1.7-5.5-4c-0.2-0.2-1.2,1.8,0.2,3.2c0.5,0.5,3.1,2.6,3.4,3c0.3,0.3,0,0.4,0,0.4c0,0,0,0-0.1,0
		c-0.2,0-3.5,0.1-7-0.1c-0.4,0-0.1,1.6,1.6,2.3c1.4,0.6,4.8,0.6,5.5,0.6c0.7,0.1-0.3,0.5-0.3,0.5s-8.1,2.3-8.4,2.4
		c-0.9,0.3,0.2,2.1,3,2c4.2-0.1,6.7-1.3,7.7-1.7c1-0.4,0.4,0.3,0.2,0.5c-1.5,1.1-6,4.1-8.1,5.5c-0.3,0.2-0.3,0.4,0,0.8
		c1.7,1.8,4.8-0.3,6-0.9c1.4-0.8,4.9-3.4,5.1-3.1c0.1,0.1-0.1,1.1-2.2,3.3c0.3,0.3,0.7,0.6,0.7,0.6s-1,1.2-1.7,2
		c-0.3,0.3-0.9,1-1.1,0.9c-0.2,0-1.1-1-1.4-1c-0.2,0-0.6,0.3-0.9,0.1c-0.2-0.1-0.8,0-1.3,0.2c-0.5,0.2-0.4,1.4-0.3,0.9
		c0.1-0.5,1.1-0.5,1.6,0.1c0.2,0.2,0.6,0.5,0.9,0.6c0.3,0.1,0.4,0.2,0.3,0.2c-0.1,0.1-0.9,0.3-1.6,0.7c-0.1,0.2-0.1,0.3-0.1,0.4
		c-0.7,0.3-0.9,0.5-0.7,1.2c0,0.1,0,0.1,0.2,0.5c0.1-0.2,0.1-0.8,0.7-1c0.1,0,0.2,0.1,0.3,0.1c0.3,0,1.3-0.6,1.5-0.8
		c0.2-0.2,0.1,0.1,0,0.4c-0.6,1.1-0.4,1.7-0.3,1.7c0.1,0,0.2,0,0.3,0.2c0.4,1,1.4,1.7,1.2,1.5c-0.2-0.2-0.4-1.6-0.3-1.6
		c0.1-0.1,0.2,0,0.3-0.1c0.1-0.1,0.3-0.7,0.3-0.9c0-0.4-0.3-0.6-0.3-0.9c0-0.3,0.2-0.6,0.2-0.6s0.3,0.6,0.6,0.9
		c0.5,0.6,0.4,0.7,1,0.5c0.1,0,0.9,1.2,0.9,1.2s0.3-0.7,0.1-1.1c-0.1-0.2-0.3-0.3-0.4-0.5c-0.1-0.2,0.3-0.4,0.1-0.7
		c-1.1-1-1.2-0.7-1.5-1.4c-0.2-0.5,0.2-0.8,0.6-1.2c1-1.1,1-1.1,1.5-1.8c0.2,0.2,0.4,0.3,0.7,0.5c1.1-1.6,2-3,3-3.3
		c1-0.4,1.4,0.2,1.4,0.8c0,1.1-2.2,3.3-2.2,3.3c-1,1.1-1.7,1.6-2.1,2.3h0h0c-0.2,0.3-0.3,0.6-0.3,1c-0.1,0.4,0,1,0.1,1.4v0
		c0.1,0.4,0.2,0.8,0.2,0.8s0.3-1.1,0.4-1.3c0.2-0.4,0.2,0,0.5,0.8c0.3,0.8,0.9,1.7,0.9,1.7l0-2c0-0.5,0.1-1.2,0.3-0.7
		c0.2,0.5,1,1.6,1,1.6s0-0.4,0-0.9h0l0,0c0-0.4,0.4-2.1,0.6-2.4h0l0,0c0.2-0.3,0.8-1.5,1.7-1.6c0.8-0.1,0.9,1.4,0.8,1.7
		c-0.1,0.6-0.3,1.3-0.5,1.6c-0.1,0.2-0.7,1.4-0.8,1.6c-0.9,2.5,1,4,1,3.9c0-0.1,0.2-1.8,0.5-2.3c0.2-0.2,0.4-0.4,0.6-0.2
		c0.2,0.3,0.8,1.5,1.5,2.3v0c0,0,0,0,0,0v0v0c0.8-0.8,1.3-2,1.5-2.3c0.2-0.2,0.4-0.1,0.6,0.2c0.3,0.4,0.5,2.1,0.5,2.3
		c0,0.1,1.9-1.4,1-3.9c-0.1-0.2-0.7-1.5-0.8-1.6c-0.1-0.3-0.4-1-0.5-1.6c-0.1-0.3,0-1.8,0.9-1.7c0.8,0.1,1.5,1.3,1.7,1.6l0,0h0
		c0.2,0.3,0.5,1.9,0.6,2.4l0,0h0c0,0.5,0,0.9,0,0.9s0.7-1.1,1-1.6c0.2-0.5,0.3,0.2,0.3,0.7l0,2c0,0,0.6-1,0.9-1.7
		c0.3-0.8,0.3-1.2,0.5-0.8c0.1,0.1,0.4,1.3,0.4,1.3s0.1-0.3,0.2-0.8h0l0,0c0.1-0.5,0.2-1,0.1-1.4c-0.1-0.4-0.2-0.7-0.3-1h0h0
		c-0.4-0.7-1.1-1.3-2.1-2.3c0,0-2.1-2.3-2.2-3.3c0-0.6,0.4-1.2,1.4-0.8c1,0.4,1.9,1.8,3,3.3c0.3-0.2,0.5-0.4,0.7-0.5
		c0.6,0.7,0.6,0.7,1.5,1.8c0.4,0.5,0.7,0.8,0.6,1.2c-0.3,0.7-0.4,0.3-1.5,1.4c-0.2,0.3,0.2,0.5,0.1,0.7c-0.1,0.2-0.3,0.3-0.4,0.5
		c-0.1,0.5,0.1,1.1,0.1,1.1s0.8-1.2,0.9-1.2c0.6,0.2,0.5,0.1,1-0.5c0.3-0.3,0.6-0.9,0.6-0.9s0.2,0.3,0.2,0.6c0,0.3-0.2,0.4-0.3,0.9
		c0,0.2,0.2,0.8,0.3,0.9c0.1,0.1,0.2,0,0.3,0.1c0.1,0.1-0.1,1.4-0.3,1.6c-0.2,0.2,0.9-0.4,1.2-1.5c0.1-0.2,0.2-0.1,0.3-0.2
		c0.1,0,0.3-0.7-0.3-1.7c-0.1-0.2-0.2-0.6,0-0.4c0.2,0.2,1.2,0.8,1.5,0.8c0.1,0,0.3-0.1,0.3-0.1c0.7,0.2,0.6,0.8,0.7,1
		c0.2-0.5,0.2-0.5,0.2-0.5c0.2-0.7,0.1-1-0.7-1.2c-0.1-0.1,0-0.2-0.1-0.4c-0.7-0.5-1.5-0.7-1.6-0.7c-0.1-0.1,0-0.2,0.3-0.2
		c0.3-0.1,0.8-0.4,0.9-0.6c0.5-0.6,1.4-0.6,1.6-0.1c0.1,0.5,0.2-0.6-0.3-0.9c-0.5-0.2-1.1-0.3-1.3-0.2c-0.3,0.2-0.7-0.1-0.9-0.1
		c-0.3,0-1.2,1-1.4,1c-0.2,0-0.8-0.6-1.1-0.9c-0.7-0.8-1.7-2-1.7-2s0.4-0.3,0.7-0.6c-2.1-2.3-2.3-3.2-2.2-3.3
		c0.3-0.3,3.7,2.3,5.1,3.1c1.2,0.7,4.4,2.7,6,0.9c0.3-0.4,0.3-0.6,0-0.8c-2.1-1.4-6.6-4.4-8.1-5.5C43.6,449.3,43,448.6,44,449"/>
	<path fill="#DD363A" d="M35.9,427.2c0,0-2.3,1-2.5,1.1c-0.4-0.3-1.5-1.4-1.7-1.5v0c0,0,0,0,0,0c0,0,0,0,0,0v0
		c-0.1,0.1-1.3,1.1-1.7,1.5c-0.2-0.2-2.5-1.1-2.5-1.1c0,0,0.6,1,1,1.6c0.4,0.7,0.3,1.6,0.3,1.6h5.7c0,0-0.1-0.9,0.3-1.6
		C35.3,428.1,35.9,427.2,35.9,427.2"/>
	<path fill="#FFFFFF" d="M29.9,433.2c0,0.2,0.3,1,0.3,1l1.5-1.2C31.6,433.1,30.8,432.8,29.9,433.2"/>
	<path fill="#FFFFFF" d="M41.5,442.5c1.6-1.4,1.1-2.6,1.1-2.6h0c0,0-1.3,0.3-1.3,2.5c-1.3-1-2.2-0.8-2.2-0.8l0,0c0,0,0.3,0.9,2,1.2
		c-1.8,3.1-3.5,3.5-4.8,3.8c0,0.1,0,0.2,0,0.7c1,0,3.1-0.8,5.1-4.3c1.3,1.1,2.2,0.8,2.2,0.8l0,0C43.5,443.7,43.1,442.9,41.5,442.5"
		/>
	<path fill="#FFFFFF" d="M29.1,444.4c0,1.5,0.2,2.7,0.4,3.8c0.5,2.4,1.2,4,1.8,4.9c0.4,0.6,0.7,0.9,0.7,1v0c0,0,0,0,0,0c0,0,0,0,0,0
		s0,0,0,0c0.1-0.1,0.3-0.4,0.7-1c0.6-0.9,1.3-2.5,1.8-4.9c0.2-1.1,0.4-2.3,0.4-3.8C34.9,444.4,29.1,444.4,29.1,444.4"/>
	<path fill="#FFFFFF" d="M27.7,446.6c-1.3-0.2-3-0.6-4.8-3.8c1.7-0.3,2-1.2,2-1.2l0,0c0,0-0.9-0.2-2.2,0.8c-0.1-2.2-1.3-2.5-1.3-2.5
		h0c0,0-0.5,1.2,1.1,2.6c-1.6,0.3-2,1.2-2,1.2v0c0,0,0.9,0.3,2.2-0.8c1.9,3.5,4.1,4.3,5.1,4.3C27.7,446.8,27.7,446.7,27.7,446.6"/>
	<polygon fill="#DD363A" points="31.7,449.8 31.7,448.4 33.4,448.4 33.4,447.6 31.7,447.6 31.7,446.4 33.4,446.4 33.4,445.6 
		30.6,445.6 30.6,450.6 33.6,450.6 33.6,449.8 	"/>
</g>
</svg>
