<?xml version="1.0" encoding="utf-8"?>
<!-- Generator: Adobe Illustrator 18.1.1, SVG Export Plug-In . SVG Version: 6.00 Build 0)  -->
<svg version="1.1" id="Ebene_1" xmlns="http://www.w3.org/2000/svg" xmlns:xlink="http://www.w3.org/1999/xlink" x="0px" y="0px"
	 viewBox="0 0 256 256" enable-background="new 0 0 256 256" xml:space="preserve">
<g>
	<polygon points="-1662.4,211.6 -1651.2,211.6 -1651.2,195 -1627,195 -1627,187.1 -1651.2,187.1 -1651.2,178.1 -1625.4,178.1 
		-1625.4,170.2 -1662.4,170.2 	"/>
	<g>
		<path d="M-1619.3,196.7c0,4.6,0.6,16,21.8,16c21.2,0,21.8-11.4,21.8-16v-26.6h-11.3v23.8c0,4.1-0.2,10.9-10.5,10.9
			c-10.3,0-10.5-6.8-10.5-10.9v-23.8h-11.3V196.7z"/>
	</g>
	<polygon points="-1567.4,211.6 -1530.9,211.6 -1530.9,203.3 -1556.2,203.3 -1556.2,170.2 -1567.4,170.2 	"/>
	<g>
		<path d="M-1487.8,190.5c0,8.8-3.5,13.2-11.1,13.2h-12.9v-25.6h11.8C-1491.2,178.1-1487.8,182.8-1487.8,190.5 M-1475.9,190.9
			c0-12.5-6.3-20.7-20.9-20.7h-26.5v41.4h27.6C-1482.5,211.6-1475.9,203.3-1475.9,190.9"/>
	</g>
	<path d="M-1441,195.5h-13.7l6.9-16.4L-1441,195.5z M-1421.4,211.6l-19.2-41.4h-14.3l-19.2,41.4h12.8l3.6-8.5h20.1l3.6,8.5H-1421.4z
		"/>
	<polygon points="-1484.2,133.2 -1484.4,131.8 -1484.5,132 -1496.4,73.2 -1520.5,73.2 -1504.4,133.2 	"/>
	<polygon points="-1545.1,92.9 -1525.1,92.9 -1525.1,73.2 -1587.5,73.2 -1587.5,92.9 -1567.4,92.9 -1567.4,133.2 -1545.1,133.2 	"/>
	<polygon points="-1619.7,110.7 -1592.1,73.2 -1618.8,73.2 -1639.8,107.5 -1639.8,73.2 -1662,73.2 -1662,133.2 -1639.3,133.2 
		-1635.2,127.2 -1631.9,133.2 -1605.8,133.2 	"/>
	<rect x="-1567.4" y="138" fill="#DD0B2F" width="22.3" height="20.6"/>
	<polygon fill="#DD0B2F" points="-1617.9,158.6 -1590.1,158.6 -1602.8,138 -1629.2,138 	"/>
	<rect x="-1662" y="138" fill="#DD0B2F" width="22.2" height="20.6"/>
	<g>
		<polyline fill="#DD0B2F" points="-1483.2,137.8 -1503.7,137.8 -1497.8,158.9 -1476.9,158.9 		"/>
	</g>
	<path fill="#DD0B2F" d="M-1464.8,139.4c-0.7,2.1-1.4,4.2-2.2,6.3c-0.5,1.3-0.9,2.7-1.5,4.1c-0.8,1.8-2.3,3.2-3.3,2.5
		c-1.2-0.9-0.2-4.7,0.4-6.8c0.8-2.5,1.5-5,2.2-7.4C-1467.7,138.3-1466.2,138.8-1464.8,139.4z"/>
	<path stroke="#000000" stroke-miterlimit="10" d="M-1461.2,105.5c0.5-2.9,1.8-5.5,3.5-7.8c0.9-1.2,1.7-1.9,2.8-2.9
		c1.9-1.7,3-4.4,4.4-6.5c0.6-1,1.1-2.1,1.6-3.2c1-2.2,1.8-4.7,3.2-6.6c2-2.8,3.6-6,5.6-8.7c2-2.7,4.1-5.3,6-8.1c2-3,3.6-6.5,5.3-9.7
		c0.9-1.7,1.8-3.3,2.6-5c0.4-0.8,0.7-1.9,1.2-2.6c0.6-0.9,2.2-1.5,2.8-0.3c0.5,1-0.4,3.3-0.6,4.4c-0.3,1.3-0.4,2.5,0,3.7
		c0.5,1.6,0.4,2.1-1,3c-2.7,2-3.5,4.7-4.8,7.6c-0.8,1.6-1.4,3.6-2.5,5c-1,1.3-2.4,2.4-3.3,3.9c-0.9,1.4-1.4,3-2,4.6
		c-0.6,1.8-1.1,3.7-1.7,5.6c-0.3,1-0.6,1.8-0.5,2.8c0.1,1,0.4,1.8,0.4,2.8c0,0.9-0.3,1.8-0.7,2.6c-0.9,1.9-3,3-4.4,4.6
		c-1.3,1.5-2.5,2.9-3.5,4.6c-0.9,1.6-1.4,3.4-2.1,5.1c-1.2,2.9-2.3,6.3-4.2,8.9c-0.7,1-1.8,1.9-2.3,3.1c0.9,0.8,1.5,2.5,1.8,3.7
		c0.4,1.5-0.4,3.1-1.3,4.4c-1,1.3-3.8,2.8-5.3,3.4c-0.7,0.3-1.4,0.1-2,0.6c-1,0.8-1.3,3.2-1.7,4.4c-0.2,0.5-0.3,0.9-0.4,1.4
		c-1.2-0.5-2.3-1-3.6-1.3c0.1-0.4,0.2-0.9,0.2-1.3c0.3-1.5,0.5-3,0.9-4.4c0.2-0.6,0.5-1.3,0.6-2c0-0.6-0.3-1.1-0.4-1.7
		c-0.2-1.7,0.9-3.8,1.2-5.5c0.3-1.5,0.4-3.1,1.4-4.3c0.8-1,2.1-1.5,2.5-2.8C-1460.8,109.1-1461.5,107.2-1461.2,105.5z"/>
	<g>
		<polyline fill="#DD0B2F" points="-1483.2,148.3 -1467.9,148.3 -1472.3,158.9 -1488,158.9 		"/>
	</g>
</g>
<g>
	<path fill="#FBC019" stroke="#3C3C3B" stroke-width="5" stroke-miterlimit="10" d="M-1152.8,5h-198.4v144.5h0c0,0.8,0,1.5,0,2.3
		c0,54.8,44.4,99.2,99.2,99.2s99.2-44.4,99.2-99.2c0-0.8,0-1.5,0-2.3h0V5z"/>
	<polygon fill="#E84031" points="-1317.5,16.9 -1191.4,16.9 -1191.4,56.6 -1214.8,56.6 -1214.8,39.6 -1240.1,39 -1239.8,124.8 
		-1263.8,124.8 -1264.5,39.6 -1291.8,39.3 -1291.8,56.3 -1317.5,56.3 	"/>
	<polygon fill="#E84031" points="-1327.7,83.7 -1279.7,83.7 -1260.7,159.7 -1247.3,159.7 -1223.3,83.7 -1179,83.7 -1179,105 
		-1207.4,105.3 -1236.1,186.2 -1272.9,186.2 -1297.7,104.7 -1327.7,104.3 	"/>
	<path id="SVGID_x5F_1_x5F_" fill="none" d="M-1351.1,152.2c2,53,45.6,95.4,99.1,95.4c52.9,0,96.2-41.5,99-93.7"/>
	<text>	<textPath  xlink:href="#SVGID_x5F_1_x5F_" startOffset="14.071%">
<tspan  font-family="'Arial-BoldMT'" font-size="36.1171">HÖSBACH</tspan>	</textPath>
</text>
	<text transform="matrix(1 0 0 1 -1345.6593 140.3734)" font-family="'Arial-BoldMT'" font-size="36.1171">18</text>
	<text transform="matrix(1 0 0 1 -1202.8741 140.3734)" font-family="'Arial-BoldMT'" font-size="36.1171">95</text>
	<text transform="matrix(1 0 0 1 -1309.8439 170.1097)" font-family="'ArialMT'" font-size="36.1171">e.</text>
	<text transform="matrix(1 0 0 1 -1221.2316 170.1097)" font-family="'ArialMT'" font-size="36.1171">v.</text>
</g>
<g>
	<g>
		<g>
			<path fill="#27348B" stroke="#27348B" stroke-miterlimit="10" d="M-1005.6,54l0.5,104.7l-18.7,14l-17.6-116.8l-48.4-15.3
				l18.7-14.4h95.2l-0.3,27.8l-18.4,15.9L-1005.6,54z"/>
		</g>
		<g>
			<path fill="#FFFFFF" stroke="#27348B" stroke-miterlimit="10" d="M-1023.8,69.9v102.8h-36.4V69.9h-29.7V40.1h95.2v29.7H-1023.8z"
				/>
		</g>
	</g>
	<g>
		<g>
			<path fill="#27348B" d="M-915.2,90.4h53.2v4.3c0,9.7-1.1,18.2-3.4,25.7c-2.2,6.9-6,13.4-11.3,19.4c-12,13.5-27.2,20.2-45.6,20.2
				c-18,0-33.5-6.5-46.3-19.5c-12.9-13.1-19.3-28.8-19.3-47.1c0-18.7,6.5-34.5,19.6-47.6c13.1-13.1,29-19.6,47.7-19.6
				c10.1,0,19.5,2,28.2,6.1c8.3,4.1,16.5,10.8,24.6,20l-13.9,13.3c-10.6-14.1-23.4-21.1-38.6-21.1c-13.6,0-25.1,4.7-34.3,14.1
				c-9.2,9.2-13.9,20.8-13.9,34.7c0,14.4,5.1,26.2,15.4,35.5c9.6,8.6,20.1,12.9,31.3,12.9c9.6,0,18.2-3.2,25.8-9.7
				c7.6-6.5,11.9-14.3,12.8-23.3l-45.7-5.5L-915.2,90.4z"/>
		</g>
		<g>
			<path fill="#F6F6F6" stroke="#27348B" stroke-miterlimit="10" d="M-928.8,103.2h53.2v4.3c0,9.7-1.1,18.2-3.4,25.7
				c-2.2,6.9-6,13.4-11.3,19.4c-12,13.5-27.2,20.2-45.6,20.2c-18,0-33.5-6.5-46.3-19.5c-12.9-13.1-19.3-28.8-19.3-47.1
				c0-18.7,6.5-34.5,19.6-47.6c13.1-13.1,29-19.6,47.7-19.6c10.1,0,19.5,2,28.2,6.1c8.3,4.1,16.5,10.8,24.6,20l-13.9,13.3
				c-10.6-14.1-23.4-21.1-38.6-21.1c-13.6,0-25.1,4.7-34.3,14.1c-9.2,9.2-13.9,20.8-13.9,34.7c0,14.4,5.1,26.2,15.4,35.5
				c9.6,8.6,20.1,12.9,31.3,12.9c9.6,0,18.2-3.2,25.8-9.7c7.6-6.5,11.9-14.3,12.8-23.3h-32.1V103.2z"/>
		</g>
	</g>
	<g>
		<path fill="#27348B" d="M-1060.6,175.7c-1.5-1.9-3.4-3.3-5.7-4.4c-2.4-1.1-4.6-1.6-6.8-1.6c-1.1,0-2.3,0.1-3.4,0.3
			c-1.2,0.2-2.2,0.6-3.1,1.1c-0.9,0.6-1.7,1.3-2.3,2.2c-0.6,0.9-0.9,2-0.9,3.4c0,1.2,0.2,2.2,0.7,3s1.2,1.5,2.2,2.1
			c1,0.6,2.1,1.1,3.4,1.6c1.3,0.5,2.8,1,4.5,1.5c2.4,0.8,4.9,1.7,7.5,2.6c2.6,1,5,2.2,7.1,3.8c2.1,1.6,3.9,3.6,5.3,5.9
			c1.4,2.4,2.1,5.3,2.1,8.8c0,4.1-0.7,7.6-2.2,10.5c-1.5,3-3.5,5.4-6,7.3c-2.5,1.9-5.4,3.4-8.7,4.3c-3.3,0.9-6.6,1.4-10.1,1.4
			c-5.1,0-10-0.9-14.7-2.6c-4.7-1.8-8.7-4.3-11.8-7.5l11.2-11.4c1.7,2.1,4,3.9,6.8,5.3c2.8,1.4,5.6,2.1,8.4,2.1
			c1.3,0,2.5-0.1,3.7-0.4c1.2-0.3,2.2-0.7,3.1-1.3c0.9-0.6,1.6-1.4,2.1-2.4c0.5-1,0.8-2.2,0.8-3.6c0-1.3-0.3-2.5-1-3.4
			c-0.7-0.9-1.6-1.8-2.8-2.5c-1.2-0.8-2.8-1.5-4.6-2.1c-1.8-0.6-3.9-1.3-6.2-2c-2.3-0.7-4.5-1.6-6.6-2.6c-2.2-1-4.1-2.3-5.8-3.8
			c-1.7-1.6-3.1-3.5-4.1-5.7c-1-2.2-1.5-4.9-1.5-8.1c0-3.9,0.8-7.3,2.4-10.1s3.7-5.1,6.3-6.9c2.6-1.8,5.5-3.1,8.8-3.9
			c3.3-0.8,6.6-1.2,9.9-1.2c4,0,8.1,0.7,12.2,2.2c4.2,1.5,7.8,3.6,10.9,6.5L-1060.6,175.7z"/>
	</g>
	<g>
		<path fill="#27348B" d="M-925.6,229.8l-9.5-13.9h-26.1v13.9h-13.2v-70.7h18.5l49.3,70.7H-925.6z M-961.2,178v24.3h16.1L-961.2,178
			z"/>
	</g>
	<g>
		<path fill="#27348B" d="M-1048.8,229.8l49.3-70.7h18.5v70.7h-13.2v-13.9h-26.1l-9.5,13.9H-1048.8z M-1010.3,202.3h16.1V178
			L-1010.3,202.3z"/>
	</g>
	<g>
		<path fill="#27348B" d="M-868.3,229.8l-15.4-28.1h-1.9v28.1h-17.2l0-70.7h23.6c3.4,0,6.7,0.3,9.9,1c3.2,0.7,6.1,1.9,8.7,3.5
			c2.6,1.7,4.6,3.9,6.1,6.6c1.5,2.7,2.3,6.1,2.3,10.2c0,4.8-1.3,8.8-3.9,12.1c-2.6,3.3-6.2,5.6-10.8,7l18.5,30.3H-868.3z
			 M-869,180.8c0-1.7-0.4-3-1.1-4c-0.7-1-1.6-1.8-2.7-2.4c-1.1-0.6-2.3-0.9-3.7-1.1c-1.4-0.2-2.7-0.3-4-0.3h-5.1l0,16.5h4.1
			c1.4,0,2.8-0.1,4.3-0.3c1.5-0.2,2.8-0.6,4-1.2c1.2-0.6,2.2-1.5,3-2.6C-869.4,184.1-869,182.6-869,180.8z"/>
	</g>
</g>
<g>
	<g>
		<polygon fill="#E52620" points="-826.1,48.7 -603.2,91.8 -808.6,208.4 		"/>
		<polygon fill="#F3E600" points="-768.6,207.3 -671.3,49.9 -573.9,207.3 		"/>
	</g>
	<polygon stroke="#000000" stroke-miterlimit="10" points="-819.5,68.4 -809.3,62.2 -798.1,56.7 -787.5,53 -776.2,48.9 -767.5,46.4 
		-756.7,43.4 -756.7,35.6 -753.2,35.6 -750.3,40.6 -741.5,39.5 -728.4,37.2 -716.7,35.6 -702.2,33.7 -692.6,32.6 -686.1,42.7 
		-699.2,44.1 -712.8,46 -732.8,49.4 -748.2,53 -750,65.9 -753.4,91.9 -766.6,181.5 -775.8,172.3 -764.1,89.8 -761.3,72.3 -759,56.3 
		-772.1,59.9 -784.3,64.3 -795.1,69.1 -811.6,77.6 	"/>
	<polygon stroke="#000000" stroke-miterlimit="10" points="-686.3,67.8 -678.7,78.8 -686.3,80 -694.6,82 -706.3,85.5 -716,89.8 
		-723.3,93.5 -727.7,96.3 -732.1,100 -735.7,104.3 -738.7,112.1 -738.7,117.2 -737.6,122 -735.7,124.8 -730.8,129.8 -724.6,134.7 
		-719.1,138.8 -714.1,143.2 -708.7,149.8 -704.5,156.5 -702.4,163.4 -701,171.5 -701,178.6 -702.4,183.6 -704.5,189.8 -708.7,196.1 
		-713,201.1 -718.7,206.6 -723.8,209.8 -729.8,213.3 -733.7,215.4 -738.7,217.2 -745.6,220 -752.7,221.8 -762.6,223.4 -772.5,213.3 
		-762.9,211.2 -756.7,209.4 -751.6,207.8 -744.5,204.8 -737.3,201.3 -727,194 -719,186.6 -715.3,181.6 -713.9,178.8 -712.1,173.5 
		-710.7,167.8 -710.4,160 -710.7,156.3 -712.3,153.3 -714.7,149.2 -717.6,146.2 -722.6,142.2 -725.6,139.9 -729.5,136.6 -739,127.3 
		-742.9,122.3 -745.8,116.5 -747.6,111.7 -748.6,105 -747.9,99.5 -745.8,95.1 -742.6,91 -738.5,86.9 -733.9,84.1 -727.5,80.4 
		-719.2,76.7 -708.8,73.8 -702.2,71.5 -696.7,70.3 -691.4,68.9 	"/>
	<polygon stroke="#000000" stroke-miterlimit="10" points="-606.7,68.8 -611.8,64.3 -617.2,61.4 -623.3,59.9 -630.9,59.3 
		-637.5,60.5 -642.4,62.5 -647.5,64.7 -656.1,71.6 -661.5,76.8 -669.4,86.4 -674.3,95 -679.7,107 -683.5,116.7 -686.4,125.3 
		-688.6,135.1 -689.8,143.4 -689.2,152.3 -688.6,158.1 -686.7,165.1 -682.2,174.6 -677.4,179.7 -672.4,183.2 -666.6,185.8 
		-661.8,186.9 -655.8,186.9 -647.7,185.8 -641.1,183.2 -635.1,179.4 -629.7,174 -625.2,168.3 -621.4,162.4 -618.2,153.9 
		-616.9,146.6 -617.2,138.6 -618.8,133.9 -621.7,131.3 -625.5,131 -630.6,132.3 -634.8,135.1 -637.5,139.3 -639.5,144.7 
		-641.1,151.1 -637.5,150.4 -632.9,148.5 -630.6,148.5 -627.8,149.5 -625.5,153 -625.8,157.1 -628.6,160.9 -630.3,162.4 
		-633.9,165.4 -637.5,167.6 -643.7,168.9 -647.7,169.5 -652.9,169.5 -657.7,168.9 -662.2,167.3 -666.6,164.8 -671.1,162.4 
		-674.6,158.1 -677.1,153.6 -679,149.2 -680.3,143.7 -681,139 -681,135.5 -681,132.3 -681,128 -680.6,123.1 -680,118.6 -679,113.2 
		-676.8,107 -674.3,102.6 -671.4,98.5 -669.4,95.3 -665.7,91.5 -661.5,88 -657.7,85.5 -654.8,83.5 -649.4,80.7 -643.7,77.8 
		-638.9,77.2 -634.8,76.9 -630.3,77.5 -626.5,78.8 -622.3,80 -618.8,81.9 -615,84.2 	"/>
</g>
<g>
	<circle fill="#6294BD" cx="-424" cy="128" r="125.1"/>
	<g>
		<circle fill="none" stroke="#FFD364" stroke-width="2" stroke-miterlimit="10" cx="-424" cy="128" r="125.1"/>
		<circle fill="none" stroke="#FFD364" stroke-width="2" stroke-miterlimit="10" cx="-424" cy="128" r="94.9"/>
		<path id="SVGID_x5F_2_x5F_" fill="none" d="M-320.6,129.7c0,56.6-45.9,102.4-102.4,102.4s-102.4-45.9-102.4-102.4
			S-479.6,27.2-423,27.2S-320.6,73.1-320.6,129.7z"/>
		<text>		<textPath  xlink:href="#SVGID_x5F_2_x5F_" startOffset="76.172%">
<tspan  fill="#FFD364" font-family="'Arial-BoldMT'" font-size="28.7038">K</tspan><tspan  fill="#FFD364" font-family="'ArialMT'" font-size="28.7038">unst</tspan><tspan  fill="#FFD364" font-family="'Arial-BoldMT'" font-size="28.7038">T</tspan><tspan  fill="#FFD364" font-family="'ArialMT'" font-size="28.7038">urn</tspan><tspan  fill="#FFD364" font-family="'Arial-BoldMT'" font-size="28.7038">V</tspan><tspan  fill="#FFD364" font-family="'ArialMT'" font-size="28.7038">ereinigung</tspan>		</textPath>
</text>
		<path id="SVGID_x5F_3_x5F_" fill="none" d="M-548.9,127c2.9,69,61.1,122.6,130.1,119.8s122.6-61.1,119.8-130.1"/>
		<text>		<textPath  xlink:href="#SVGID_x5F_3_x5F_" startOffset="22.189%">
<tspan  fill="#FFD364" font-family="'Arial-BoldMT'" font-size="26.5929">Ruhr-West e.V.</tspan>		</textPath>
</text>
	</g>
	<g>
		<polygon fill="none" stroke="#FFD364" stroke-miterlimit="10" points="-446.5,89.3 -365.4,83.1 -420.8,94.2 -428.1,144 
			-426.5,92.6 -457.8,93.5 -420.8,64.6 		"/>
		<circle fill="none" stroke="#FFD364" stroke-miterlimit="10" cx="-462.6" cy="90.7" r="4.8"/>
	</g>
	<g>
		<line fill="none" stroke="#FFD364" stroke-width="2" stroke-miterlimit="10" x1="-490.5" y1="189.3" x2="-453.5" y2="152.3"/>
		<polygon fill="#6294BD" stroke="#FFD364" stroke-miterlimit="10" points="-478.1,160.6 -447,182.2 -473.6,156 -447,128.8 
			-474.2,147.3 -479.4,121 -479.4,150.2 		"/>
		<circle fill="none" stroke="#FFD364" stroke-miterlimit="10" cx="-476.8" cy="117.4" r="4.8"/>
		<line fill="none" stroke="#FFD364" stroke-miterlimit="10" x1="-479.4" y1="147.2" x2="-479.4" y2="177.4"/>
	</g>
	<g>
		<circle fill="none" stroke="#FFD364" stroke-miterlimit="10" cx="-395.5" cy="117.8" r="4.8"/>
		<line fill="none" stroke="#FFD364" stroke-miterlimit="10" x1="-386.6" y1="168" x2="-384.2" y2="180.7"/>
		<polygon fill="none" stroke="#FFD364" stroke-miterlimit="10" points="-385.2,175.1 -395.5,122.6 -381.3,157.7 -348.8,123.7 		"/>
		<line fill="none" stroke="#FFD364" stroke-miterlimit="10" x1="-404.2" y1="182.6" x2="-356.9" y2="160.3"/>
		<line fill="none" stroke="#FFD364" stroke-miterlimit="10" x1="-401.4" y1="189" x2="-354.1" y2="166.7"/>
	</g>
</g>
<g>
	<path fill="#DD363A" d="M-274.5,128c0,69.8,56.7,126.5,126.5,126.5c69.7,0,126.5-56.7,126.5-126.5S-78.3,1.5-148,1.5
		C-217.8,1.5-274.5,58.2-274.5,128"/>
	<path fill="#FFFFFF" d="M-270.3,128c0-67.5,54.9-122.3,122.3-122.3C-80.5,5.7-25.7,60.5-25.7,128c0,67.4-54.9,122.3-122.3,122.3
		C-215.5,250.3-270.3,195.4-270.3,128"/>
	<path fill="#DD363A" d="M-264.8,128c0,64.4,52.4,116.8,116.8,116.8c64.4,0,116.8-52.4,116.8-116.8c0-64.4-52.4-116.8-116.8-116.8
		C-212.4,11.2-264.8,63.6-264.8,128"/>
	<path fill="#FFFFFF" d="M-245.1,128c0-53.5,43.6-97.1,97.1-97.1c53.5,0,97.1,43.6,97.1,97.1s-43.6,97.1-97.1,97.1
		C-201.5,225.1-245.1,181.5-245.1,128"/>
	<path fill="#DD363A" d="M-99.9,133.2c4.1,1.6,14.2,6.4,31,7c11.3,0.4,15.8-6.7,12.1-7.9c-1.5-0.5-33.8-9.6-33.8-9.6s-4-1.6-1-1.9
		c3-0.3,16.5-0.2,22.2-2.5c7-2.9,8.2-9.2,6.6-9.1c-14.1,0.7-27.3,0.5-28.1,0.4c-0.1,0-0.2,0-0.2,0c0,0-1.6-0.5-0.2-1.8
		c1.5-1.4,11.7-9.8,13.8-12c5.6-5.6,1.8-13.8,0.9-12.9C-86,91.7-98,98.6-98.7,98.7c-0.7,0.1-0.5-1.5,0.1-2.8
		c0.6-1.2,3.8-4.9,4.8-8.7c2.7-10.2,2-16.6-3.7-19.1c-1-0.4-1.4,0.1-2.8,3.3c-1.3,3.2-1.9,8.7-7,10.8c-2.6,1.1-7.5,5.6-7.6,7.4
		c-0.1,1.8,1,4.6-0.4,5.6c-1.1,0.8-3-0.6-4.6,0.8c-1.6,1.4-6.4,6.2-8,7.4c-1.7,1.2-4.9,3.2-7,2.1c-4.5-4.5-2.3-17.6-2.3-17.6
		s1.5,0.3,3.2,0.1c4.6-0.7,4.9-6.1,4.2-6.8c-0.5,0.6-1.4,1.5-3.8,1.7c-1.8,0.2-2.3-0.6-2.7-2.2c-0.4-1.5-0.7-2.5,0.1-5.3
		c0.8-2.7,3.6-4.1,5.2-5.4c1.6-1.3,0.8-6.1,0.8-6.1s-0.6,1.4-1.7,2.5c-1.5,1.4-3.6,1-8,0.7c-4.4-0.3-6.3-2-7-2.8
		c-0.7-0.9-6.5-0.2-8.2-0.2c-1.7,0.1-8.8,1.4-11.5,2.4c-2.7,1-6.3,2.5-7.3,3.3c-1,0.8-0.6,1.5-0.6,1.5l0.9,2.4c0,0,3.3-2.3,6.5-3.2
		c3.2-0.9,3.6,0.6,4,2c0.5,1.6,0.6,2,0.7,3.1c-1.2,0.5-6,0.9-10.4,0.7c-5-0.3-5.3-2.5-5.2-3.8c0-0.5-1.5,0-2,1.3c-1,2.2-1.3,6,9,5.9
		c4.1-0.1,7.9-1.6,9.1-2c0.8,2.7-0.1,3.2-1.3,3.4c-5,0.9-7.5-0.4-7.5-0.4s-0.7,2.2-0.2,2.6c3,2.3,9,2.3,10.1,2.2
		c1.1-0.1,1.9-0.8,2.5-0.3c0.6,0.5,1.4,3,1.4,3.9c0.1,0.8-0.2,1.4-2.7,1.4c-2.5-0.1-3.5,0-3.4,0.5c0.1,0.5,2.8,2.6,3.3,3.1
		c0.5,0.5,3-2.2,3-2.2s-0.1,0.4,0.1,1.5c0.2,1.1,0.9,9.6-4.4,12.1c-2.1,1.1-5.4-0.9-7-2.1c-1.7-1.2-6.4-6-8-7.4
		c-1.6-1.4-3.5,0-4.6-0.8c-1.4-0.9-0.3-3.8-0.4-5.6c-0.1-1.8-4.9-6.3-7.6-7.4c-5.1-2.1-5.7-7.7-7-10.8c-1.3-3.2-1.7-3.7-2.8-3.3
		c-5.8,2.4-6.4,8.9-3.7,19.1c1,3.8,4.2,7.5,4.8,8.7c0.6,1.2,0.8,2.9,0.1,2.8c-0.7-0.1-12.8-7-22.1-15.9c-0.9-0.9-4.7,7.3,0.9,12.9
		c2.1,2.2,12.3,10.6,13.8,12c1.4,1.2-0.2,1.8-0.2,1.8c-0.1,0-0.2,0-0.2,0c-0.8,0.1-14,0.3-28.1-0.4c-1.6-0.1-0.4,6.2,6.6,9.1
		c5.7,2.3,19.2,2.2,22.2,2.5c3,0.3-1,1.9-1,1.9s-32.3,9.1-33.8,9.6c-3.7,1.2,0.7,8.3,12.1,7.9c16.8-0.6,26.9-5.4,31-7
		c4.1-1.6,1.7,1.3,0.8,1.9c-6.1,4.3-24,16.4-32.5,21.9c-1.2,0.8-1.4,1.6,0,3.1c6.6,7.1,19.2-1,24.2-3.8c5.8-3.2,19.6-13.6,20.7-12.5
		c0.4,0.4-0.4,4.3-8.9,13.4c1.2,1.2,2.8,2.4,2.8,2.4s-4.1,4.9-6.9,8c-1.1,1.2-3.7,3.8-4.5,3.7c-0.7-0.1-4.4-4.1-5.6-4.2
		c-0.8,0-2.5,1.2-3.7,0.5c-0.8-0.4-3.1-0.2-5,0.7c-1.9,0.9-1.6,5.5-1,3.4c0.5-2,4.4-2,6.3,0.3c0.6,0.7,2.5,2.1,3.7,2.4
		c1.2,0.3,1.8,0.7,1.3,1c-0.4,0.3-3.7,1.1-6.3,3c-0.6,1-0.3,1.3-0.5,1.8c-2.9,1-3.6,2-2.7,4.9c0.1,0.3,0,0.4,1,2.2
		c0.4-0.8,0.2-3.4,3-4c0.3-0.1,0.8,0.4,1.3,0.4c1.2,0,5.3-2.4,6.1-3.4c0.7-0.9,0.6,0.5,0.1,1.4c-2.3,4.3-1.5,6.9-1.3,7
		c0.5,0.2,0.8-0.2,1.2,0.6c1.4,4.2,5.7,6.7,5,6c-0.7-0.7-1.7-6.3-1.3-6.5c0.4-0.2,0.8,0.1,1.3-0.2c0.5-0.3,1.2-2.7,1.1-3.5
		c-0.1-1.8-1.1-2.3-1-3.4c0-1.1,0.8-2.3,0.8-2.3s1.2,2.4,2.3,3.5c2.2,2.3,1.8,2.8,4,1.9c0.5-0.2,3.5,4.8,3.5,4.8s1.1-2.6,0.6-4.5
		c-0.2-0.8-1-1.2-1.6-2c-0.6-0.7,1-1.7,0.2-2.8c-4.4-4.2-4.8-2.7-5.9-5.5c-0.7-1.8,0.7-3.1,2.2-4.9c3.8-4.6,3.9-4.6,6.2-7.2
		c0.9,0.6,1.5,1.2,2.8,2.2c4.2-6.2,7.9-11.9,11.9-13.3c4-1.5,5.8,0.9,5.7,3.3c-0.2,4.3-8.7,13.4-8.7,13.4c-3.9,4.3-6.7,6.6-8.3,9.4
		h0h0c-0.7,1.2-1.1,2.4-1.4,3.9c-0.3,1.6,0,3.8,0.4,5.7v0c0.3,1.8,0.7,3.2,0.7,3.2s1.3-4.6,1.6-5.1c0.8-1.6,1,0,2.2,3.1
		c1.2,3.1,3.8,6.9,3.8,6.9l0-7.8c0.1-2,0.3-4.8,1.2-2.7c0.9,2,3.9,6.4,3.9,6.4s0-1.6,0.2-3.5h0l0,0c0.1-1.8,1.5-8.3,2.2-9.6h0l0,0
		c0.6-1.2,3.4-6,6.8-6.5c3.4-0.5,3.6,5.5,3.4,6.8c-0.4,2.5-1.3,5.3-1.8,6.3c-0.3,0.6-3,5.6-3.3,6.6c-3.6,10,3.9,16.1,3.9,15.6
		c0-0.5,0.9-7.4,2-9c0.7-1,1.6-1.6,2.3-0.7c1,1.4,3.1,6,6.1,9.2v0c0,0,0,0,0,0v0v0c3-3.2,5.1-7.9,6.1-9.2c0.7-1,1.6-0.3,2.3,0.7
		c1.1,1.7,2,8.6,2,9c0,0.5,7.5-5.6,3.9-15.6c-0.3-0.9-3-5.9-3.3-6.6c-0.5-1-1.4-3.9-1.8-6.3c-0.2-1.3,0.1-7.3,3.4-6.8
		c3.4,0.5,6.1,5.3,6.7,6.5l0,0h0c0.7,1.3,2.1,7.8,2.2,9.6l0,0h0c0.1,1.9,0.2,3.5,0.2,3.5s3-4.4,3.9-6.4c0.9-2,1.1,0.7,1.2,2.7l0,7.8
		c0,0,2.6-3.9,3.8-6.9c1.2-3.1,1.4-4.6,2.2-3.1c0.3,0.6,1.6,5.1,1.6,5.1s0.4-1.4,0.7-3.2h0l0,0c0.3-1.8,0.6-4.1,0.4-5.7
		c-0.2-1.5-0.7-2.8-1.4-3.9h0h0c-1.6-2.8-4.4-5.1-8.3-9.4c0,0-8.5-9.2-8.7-13.4c-0.1-2.4,1.7-4.7,5.7-3.3c4,1.5,7.6,7.1,11.9,13.3
		c1.3-1,1.8-1.5,2.8-2.2c2.3,2.7,2.4,2.6,6.2,7.2c1.5,1.8,3,3.1,2.2,4.9c-1.1,2.7-1.5,1.3-5.9,5.5c-0.8,1.2,0.8,2.1,0.3,2.8
		c-0.6,0.7-1.4,1.1-1.6,2c-0.5,1.9,0.6,4.5,0.6,4.5s3-4.9,3.5-4.8c2.3,0.9,1.9,0.4,4-1.9c1.1-1.1,2.3-3.5,2.3-3.5s0.7,1.2,0.8,2.3
		c0,1.1-1,1.6-1,3.4c0,0.7,0.6,3.2,1.1,3.5c0.5,0.3,0.9,0,1.3,0.2c0.4,0.2-0.6,5.8-1.3,6.5c-0.7,0.7,3.5-1.8,5-6
		c0.4-0.8,0.6-0.4,1.2-0.6c0.2-0.1,1.1-2.7-1.3-7c-0.5-0.9-0.7-2.4,0.1-1.4c0.7,0.9,4.9,3.4,6.1,3.4c0.5,0,1-0.4,1.3-0.4
		c2.8,0.6,2.6,3.2,3,4c0.9-1.8,0.9-1.9,1-2.2c0.9-3,0.2-3.9-2.7-4.9c-0.2-0.5,0.1-0.8-0.5-1.8c-2.6-1.9-5.9-2.7-6.3-3
		c-0.5-0.3,0.1-0.7,1.3-1c1.2-0.3,3-1.7,3.7-2.4c1.9-2.2,5.8-2.3,6.3-0.3c0.5,2,0.9-2.5-1-3.4c-1.9-0.9-4.3-1.1-5-0.7
		c-1.3,0.7-3-0.5-3.7-0.5c-1.3,0.1-4.9,4-5.6,4.2c-0.7,0.1-3.3-2.5-4.5-3.7c-2.8-3-6.9-8-6.9-8s1.6-1.2,2.8-2.4
		c-8.5-9.1-9.3-13-8.9-13.4c1.1-1.1,14.9,9.3,20.6,12.5c5,2.8,17.5,10.8,24.2,3.8c1.4-1.5,1.2-2.3,0-3.1
		c-8.5-5.4-26.4-17.6-32.4-21.9C-101.5,134.5-104,131.6-99.9,133.2"/>
	<path fill="#DD363A" d="M-132.3,45.7c-0.1,0-9.2,3.9-10.1,4.5c-1.6-1.4-6.2-5.5-6.7-5.9v0c0,0,0,0,0,0c0,0,0,0,0,0v0
		c-0.5,0.5-5.1,4.6-6.7,5.9c-0.8-0.6-9.9-4.5-10.1-4.5c0,0,2.6,3.8,4.2,6.5c1.6,2.7,1.3,6.4,1.3,6.4h22.8c0,0-0.4-3.7,1.3-6.4
		C-134.9,49.5-132.3,45.7-132.3,45.7"/>
	<path fill="#FFFFFF" d="M-156.5,70c0,0.9,1.1,4.1,1.1,4.1l5.9-4.7C-149.6,69.3-152.8,68.2-156.5,70"/>
	<path fill="#FFFFFF" d="M-109.8,107.2c6.6-5.8,4.4-10.6,4.4-10.6h0c0,0-5.1,1.4-5.4,10.1c-5.2-4.1-8.8-3.1-8.8-3.1l0,0
		c0,0,1.1,3.4,7.9,4.7c-7.2,12.6-13.9,14.2-19.2,15.1c0,0.5,0.2,0.9,0,2.8c4.1,0,12.6-3.1,20.4-17.3c5.2,4.4,8.7,3.1,8.7,3.1l0,0
		C-101.7,112.1-103.3,108.6-109.8,107.2"/>
	<path fill="#FFFFFF" d="M-159.6,114.7c0.2,5.8,0.8,10.9,1.6,15.2c1.8,9.6,4.8,15.9,7.1,19.5c1.6,2.5,2.7,3.8,2.9,4v0.1c0,0,0,0,0,0
		c0,0,0,0,0,0s0,0,0-0.1c0.2-0.3,1.3-1.5,2.9-4c2.3-3.6,5.2-9.9,7.1-19.5c0.8-4.4,1.4-9.4,1.6-15.2
		C-136.5,114.8-159.6,114.8-159.6,114.7"/>
	<path fill="#FFFFFF" d="M-165.2,123.5c-5.2-0.9-12-2.6-19.2-15.1c6.8-1.3,7.9-4.7,7.9-4.7l0,0c0,0-3.7-1-8.8,3.1
		c-0.3-8.7-5.4-10.1-5.4-10.1h0c0,0-2.2,4.8,4.4,10.6c-6.5,1.4-8,4.9-8,4.9v0c0,0,3.4,1.2,8.7-3.1c7.8,14.2,16.3,17.3,20.4,17.3
		C-165.4,124.4-165.2,123.9-165.2,123.5"/>
	<polygon fill="#DD363A" points="-149.1,136.6 -149.1,130.8 -142.4,130.8 -142.4,127.8 -149.1,127.8 -149.1,122.9 -142.5,122.9 
		-142.5,119.8 -153.6,119.8 -153.6,139.6 -141.6,139.6 -141.6,136.6 	"/>
</g>
<g>
	<text transform="matrix(1 0 0 0.85 8.3293 123.7177)" fill="#98191D" font-family="'Helvetica-Bold'" font-size="72">KTV</text>
	<text transform="matrix(1 0 0 0.85 8.3285 171.3574)" fill="#314D68" font-family="'Helvetica'" font-size="38.0567">HOHENLOHE</text>
	<g>
		<path fill="#BE1622" stroke="#BE1622" stroke-miterlimit="10" d="M178.2,85l13.3-16.1c0,0,8.1-10.2,9.7-9.1
			c2.4,1.6,2.1,7.7,3.3,9.5c1.5,2.1,14.9-5,17.6-5.9c4.2-1.5,9.3-2.6,10.7-2.8c1.8-0.3,10.5-1.5,13.4-1.1c2.7,0.4-8.4,3.4-17.4,7.4
			c-4,1.8-10.6,4.6-14.2,6.3c-1.9,0.9-8,2.8-8.5,4.9c-0.9,3.7-0.4,6.2-0.7,9.3c-0.3,3.9-2.1,8-4.4,12.6c-1.9,3.7-4.5,7.7-5.8,10.2
			c-1.1,2-5.3,7.3-5.3,7.3l-5.1,6.4c0,0-4.2,4-5.4,5.4c-1.4,1.6-6.2,6.5-6.5,5.4c-0.3-0.9,10.5-15.5,10.5-15.5l6.3-11.1l5.1-14.9
			c0,0,2.1-9.1,1.7-12.2c-0.4-3.3-3-1.9-4.1-1.7c-1.2,0.3-3.9,3-3.9,3l-4.2,4c0,0-7.3,6.8-9.1,4.6C174.2,90.1,178.2,85,178.2,85z"/>
		<circle fill="#BE1622" stroke="#BE1622" stroke-miterlimit="10" cx="183.9" cy="106" r="4.2"/>
	</g>
</g>
</svg>
