<?xml version="1.0" encoding="utf-8"?>
<!-- Generator: Adobe Illustrator 18.1.1, SVG Export Plug-In . SVG Version: 6.00 Build 0)  -->
<svg version="1.1" id="Ebene_1" xmlns="http://www.w3.org/2000/svg" xmlns:xlink="http://www.w3.org/1999/xlink" x="0px" y="0px"
	 viewBox="0 0 64 64" enable-background="new 0 0 64 64" xml:space="preserve">
<g>
	<polygon points="-1669,53.6 -1666.1,53.6 -1666.1,49.3 -1659.9,49.3 -1659.9,47.2 -1666.1,47.2 -1666.1,44.9 -1659.5,44.9 
		-1659.5,42.9 -1669,42.9 	"/>
	<g>
		<path d="M-1657.9,49.7c0,1.2,0.1,4.1,5.6,4.1c5.5,0,5.6-2.9,5.6-4.1v-6.9h-2.9V49c0,1,0,2.8-2.7,2.8c-2.7,0-2.7-1.8-2.7-2.8v-6.1
			h-2.9V49.7z"/>
	</g>
	<polygon points="-1644.5,53.6 -1635.1,53.6 -1635.1,51.4 -1641.6,51.4 -1641.6,42.9 -1644.5,42.9 	"/>
	<g>
		<path d="M-1624,48.1c0,2.3-0.9,3.4-2.9,3.4h-3.3v-6.6h3C-1624.8,44.9-1624,46.1-1624,48.1 M-1620.9,48.2c0-3.2-1.6-5.3-5.4-5.3
			h-6.8v10.7h7.1C-1622.6,53.6-1620.9,51.4-1620.9,48.2"/>
	</g>
	<path d="M-1611.9,49.4h-3.5l1.8-4.2L-1611.9,49.4z M-1606.8,53.6l-5-10.7h-3.7l-5,10.7h3.3l0.9-2.2h5.2l0.9,2.2H-1606.8z"/>
	<polygon points="-1623,33.3 -1623.1,33 -1623.1,33 -1626.2,17.9 -1632.4,17.9 -1628.2,33.3 	"/>
	<polygon points="-1638.7,22.9 -1633.6,22.9 -1633.6,17.9 -1649.7,17.9 -1649.7,22.9 -1644.5,22.9 -1644.5,33.3 -1638.7,33.3 	"/>
	<polygon points="-1658,27.5 -1650.9,17.9 -1657.8,17.9 -1663.2,26.7 -1663.2,17.9 -1668.9,17.9 -1668.9,33.3 -1663,33.3 
		-1662,31.8 -1661.1,33.3 -1654.4,33.3 	"/>
	<rect x="-1644.5" y="34.6" fill="#DD0B2F" width="5.8" height="5.3"/>
	<polygon fill="#DD0B2F" points="-1657.5,39.9 -1650.3,39.9 -1653.6,34.6 -1660.4,34.6 	"/>
	<rect x="-1668.9" y="34.6" fill="#DD0B2F" width="5.7" height="5.3"/>
	<g>
		<polyline fill="#DD0B2F" points="-1622.8,34.5 -1628.1,34.5 -1626.5,40 -1621.1,40 		"/>
	</g>
	<path fill="#DD0B2F" d="M-1618,34.9c-0.2,0.5-0.4,1.1-0.6,1.6c-0.1,0.3-0.2,0.7-0.4,1c-0.2,0.5-0.6,0.8-0.8,0.6
		c-0.3-0.2-0.1-1.2,0.1-1.8c0.2-0.6,0.4-1.3,0.6-1.9C-1618.8,34.7-1618.4,34.8-1618,34.9z"/>
	<path stroke="#000000" stroke-miterlimit="10" d="M-1617.1,26.2c0.1-0.7,0.5-1.4,0.9-2c0.2-0.3,0.4-0.5,0.7-0.7
		c0.5-0.4,0.8-1.1,1.1-1.7c0.2-0.3,0.3-0.5,0.4-0.8c0.3-0.6,0.5-1.2,0.8-1.7c0.5-0.7,0.9-1.5,1.4-2.2c0.5-0.7,1.1-1.4,1.5-2.1
		c0.5-0.8,0.9-1.7,1.4-2.5c0.2-0.4,0.5-0.8,0.7-1.3c0.1-0.2,0.2-0.5,0.3-0.7c0.2-0.2,0.6-0.4,0.7-0.1c0.1,0.2-0.1,0.9-0.2,1.1
		c-0.1,0.3-0.1,0.6,0,1c0.1,0.4,0.1,0.5-0.2,0.8c-0.7,0.5-0.9,1.2-1.2,2c-0.2,0.4-0.4,0.9-0.6,1.3c-0.3,0.3-0.6,0.6-0.8,1
		c-0.2,0.4-0.4,0.8-0.5,1.2c-0.2,0.5-0.3,1-0.4,1.4c-0.1,0.3-0.2,0.5-0.1,0.7c0,0.2,0.1,0.5,0.1,0.7c0,0.2-0.1,0.5-0.2,0.7
		c-0.2,0.5-0.8,0.8-1.1,1.2c-0.3,0.4-0.6,0.8-0.9,1.2c-0.2,0.4-0.4,0.9-0.5,1.3c-0.3,0.8-0.6,1.6-1.1,2.3c-0.2,0.3-0.5,0.5-0.6,0.8
		c0.2,0.2,0.4,0.7,0.5,1c0.1,0.4-0.1,0.8-0.3,1.1c-0.3,0.3-1,0.7-1.4,0.9c-0.2,0.1-0.4,0-0.5,0.1c-0.3,0.2-0.3,0.8-0.4,1.1
		c0,0.1-0.1,0.2-0.1,0.4c-0.3-0.1-0.6-0.2-0.9-0.3c0-0.1,0-0.2,0.1-0.3c0.1-0.4,0.1-0.8,0.2-1.1c0-0.2,0.1-0.3,0.1-0.5
		c0-0.2-0.1-0.3-0.1-0.4c0-0.4,0.2-1,0.3-1.4c0.1-0.4,0.1-0.8,0.4-1.1c0.2-0.3,0.5-0.4,0.6-0.7C-1617,27.1-1617.2,26.6-1617.1,26.2z
		"/>
	<g>
		<polyline fill="#DD0B2F" points="-1622.8,37.2 -1618.8,37.2 -1620,40 -1624,40 		"/>
	</g>
</g>
<g>
	<path fill="#FBC019" stroke="#3C3C3B" stroke-width="2" stroke-miterlimit="10" d="M-1323.4,1.5h-49.2v35.8h0c0,0.2,0,0.4,0,0.6
		c0,13.6,11,24.6,24.6,24.6s24.6-11,24.6-24.6c0-0.2,0-0.4,0-0.6h0V1.5z"/>
	<polygon fill="#E84031" points="-1364.2,4.5 -1333,4.5 -1333,14.3 -1338.8,14.3 -1338.8,10.1 -1345.1,9.9 -1345,31.2 -1350.9,31.2 
		-1351.1,10.1 -1357.9,10 -1357.9,14.2 -1364.2,14.2 	"/>
	<polygon fill="#E84031" points="-1366.8,21 -1354.9,21 -1350.2,39.9 -1346.8,39.9 -1340.9,21 -1329.9,21 -1329.9,26.3 
		-1336.9,26.4 -1344,46.4 -1353.2,46.4 -1359.3,26.2 -1366.8,26.1 	"/>
	<path id="SVGID_x5F_1_x5F_" fill="none" d="M-1372.6,38c0.5,13.2,11.3,23.7,24.6,23.7c13.1,0,23.8-10.3,24.6-23.2"/>
	<text>	<textPath  xlink:href="#SVGID_x5F_1_x5F_" startOffset="14.071%">
<tspan  font-family="'Arial-BoldMT'" font-size="8.9565">HÖSBACH</tspan>	</textPath>
</text>
	<text transform="matrix(1 0 0 1 -1371.2257 35.0717)" font-family="'Arial-BoldMT'" font-size="8.9565">18</text>
	<text transform="matrix(1 0 0 1 -1335.8175 35.0717)" font-family="'Arial-BoldMT'" font-size="8.9565">95</text>
	<text transform="matrix(1 0 0 1 -1362.3448 42.4457)" font-family="'ArialMT'" font-size="8.9565">e.</text>
	<text transform="matrix(1 0 0 1 -1340.3693 42.4457)" font-family="'ArialMT'" font-size="8.9565">v.</text>
</g>
<g>
	<g>
		<g>
			<path fill="#27348B" stroke="#27348B" stroke-miterlimit="10" d="M-1079.3,13.8l0.1,25.8l-4.6,3.4l-4.4-28.8l-12-3.8l4.6-3.6
				h23.5l-0.1,6.9l-4.5,3.9L-1079.3,13.8z"/>
		</g>
		<g>
			<path fill="#FFFFFF" stroke="#27348B" stroke-miterlimit="10" d="M-1083.8,17.7V43h-9V17.7h-7.3v-7.3h23.5v7.3H-1083.8z"/>
		</g>
	</g>
	<g>
		<g>
			<path fill="#27348B" d="M-1057,22.7h13.1v1c0,2.4-0.3,4.5-0.8,6.3c-0.5,1.7-1.5,3.3-2.8,4.8c-3,3.3-6.7,5-11.3,5
				c-4.4,0-8.3-1.6-11.4-4.8c-3.2-3.2-4.8-7.1-4.8-11.6c0-4.6,1.6-8.5,4.8-11.7c3.2-3.2,7.1-4.8,11.8-4.8c2.5,0,4.8,0.5,7,1.5
				c2.1,1,4.1,2.7,6.1,4.9l-3.4,3.3c-2.6-3.5-5.8-5.2-9.5-5.2c-3.4,0-6.2,1.2-8.5,3.5c-2.3,2.3-3.4,5.1-3.4,8.6
				c0,3.5,1.3,6.5,3.8,8.7c2.4,2.1,4.9,3.2,7.7,3.2c2.4,0,4.5-0.8,6.4-2.4c1.9-1.6,2.9-3.5,3.1-5.7l-11.3-1.4L-1057,22.7z"/>
		</g>
		<g>
			<path fill="#F6F6F6" stroke="#27348B" stroke-miterlimit="10" d="M-1060.3,25.9h13.1v1c0,2.4-0.3,4.5-0.8,6.3
				c-0.5,1.7-1.5,3.3-2.8,4.8c-3,3.3-6.7,5-11.3,5c-4.4,0-8.3-1.6-11.4-4.8c-3.2-3.2-4.8-7.1-4.8-11.6c0-4.6,1.6-8.5,4.8-11.7
				c3.2-3.2,7.1-4.8,11.8-4.8c2.5,0,4.8,0.5,7,1.5c2.1,1,4.1,2.7,6.1,4.9l-3.4,3.3c-2.6-3.5-5.8-5.2-9.5-5.2c-3.4,0-6.2,1.2-8.5,3.5
				c-2.3,2.3-3.4,5.1-3.4,8.6c0,3.5,1.3,6.5,3.8,8.7c2.4,2.1,4.9,3.2,7.7,3.2c2.4,0,4.5-0.8,6.4-2.4c1.9-1.6,2.9-3.5,3.1-5.7h-7.9
				V25.9z"/>
		</g>
	</g>
	<g>
		<path fill="#27348B" d="M-1092.9,43.8c-0.4-0.5-0.8-0.8-1.4-1.1c-0.6-0.3-1.1-0.4-1.7-0.4c-0.3,0-0.6,0-0.8,0.1
			c-0.3,0-0.5,0.1-0.8,0.3c-0.2,0.1-0.4,0.3-0.6,0.5c-0.2,0.2-0.2,0.5-0.2,0.8c0,0.3,0.1,0.5,0.2,0.7s0.3,0.4,0.5,0.5
			c0.2,0.1,0.5,0.3,0.8,0.4c0.3,0.1,0.7,0.3,1.1,0.4c0.6,0.2,1.2,0.4,1.8,0.7c0.6,0.2,1.2,0.6,1.7,0.9c0.5,0.4,1,0.9,1.3,1.5
			c0.3,0.6,0.5,1.3,0.5,2.2c0,1-0.2,1.9-0.6,2.6c-0.4,0.7-0.9,1.3-1.5,1.8c-0.6,0.5-1.3,0.8-2.1,1.1c-0.8,0.2-1.6,0.3-2.5,0.3
			c-1.2,0-2.5-0.2-3.6-0.7c-1.2-0.4-2.1-1.1-2.9-1.9l2.8-2.8c0.4,0.5,1,1,1.7,1.3c0.7,0.4,1.4,0.5,2.1,0.5c0.3,0,0.6,0,0.9-0.1
			c0.3-0.1,0.6-0.2,0.8-0.3c0.2-0.1,0.4-0.3,0.5-0.6c0.1-0.2,0.2-0.5,0.2-0.9c0-0.3-0.1-0.6-0.2-0.8c-0.2-0.2-0.4-0.4-0.7-0.6
			c-0.3-0.2-0.7-0.4-1.1-0.5c-0.5-0.2-1-0.3-1.5-0.5c-0.6-0.2-1.1-0.4-1.6-0.6c-0.5-0.2-1-0.6-1.4-0.9c-0.4-0.4-0.8-0.9-1-1.4
			c-0.3-0.6-0.4-1.2-0.4-2c0-1,0.2-1.8,0.6-2.5c0.4-0.7,0.9-1.3,1.6-1.7c0.6-0.4,1.4-0.8,2.2-1c0.8-0.2,1.6-0.3,2.4-0.3
			c1,0,2,0.2,3,0.5c1,0.4,1.9,0.9,2.7,1.6L-1092.9,43.8z"/>
	</g>
	<g>
		<path fill="#27348B" d="M-1059.6,57.1l-2.3-3.4h-6.4v3.4h-3.3V39.7h4.6l12.2,17.4H-1059.6z M-1068.3,44.3v6h4L-1068.3,44.3z"/>
	</g>
	<g>
		<path fill="#27348B" d="M-1090,57.1l12.2-17.4h4.6v17.4h-3.3v-3.4h-6.4l-2.3,3.4H-1090z M-1080.5,50.3h4v-6L-1080.5,50.3z"/>
	</g>
	<g>
		<path fill="#27348B" d="M-1045.4,57.1l-3.8-6.9h-0.5v6.9h-4.3l0-17.4h5.8c0.8,0,1.7,0.1,2.5,0.3c0.8,0.2,1.5,0.5,2.1,0.9
			c0.6,0.4,1.1,1,1.5,1.6c0.4,0.7,0.6,1.5,0.6,2.5c0,1.2-0.3,2.2-1,3c-0.6,0.8-1.5,1.4-2.7,1.7l4.6,7.5H-1045.4z M-1045.6,45
			c0-0.4-0.1-0.7-0.3-1c-0.2-0.3-0.4-0.5-0.7-0.6c-0.3-0.1-0.6-0.2-0.9-0.3c-0.3,0-0.7-0.1-1-0.1h-1.3l0,4.1h1c0.3,0,0.7,0,1.1-0.1
			c0.4-0.1,0.7-0.2,1-0.3c0.3-0.1,0.5-0.4,0.7-0.6C-1045.7,45.8-1045.6,45.5-1045.6,45z"/>
	</g>
</g>
<g>
	<g>
		<polygon fill="#E52620" points="-827.5,12.2 -771.8,22.9 -823.1,52.1 		"/>
		<polygon fill="#F3E600" points="-813.2,51.8 -788.8,12.5 -764.5,51.8 		"/>
	</g>
	<polygon stroke="#000000" stroke-miterlimit="10" points="-825.8,17.1 -823.3,15.6 -820.5,14.2 -817.9,13.3 -815,12.2 -812.9,11.6 
		-810.2,10.9 -810.2,8.9 -809.3,8.9 -808.6,10.2 -806.4,9.9 -803.1,9.3 -800.2,8.9 -796.6,8.4 -794.1,8.2 -792.5,10.7 -795.8,11 
		-799.2,11.5 -804.2,12.3 -808,13.3 -808.5,16.5 -809.3,23 -812.6,45.4 -814.9,43.1 -812,22.5 -811.3,18.1 -810.7,14.1 -814,15 
		-817.1,16.1 -819.8,17.3 -823.9,19.4 	"/>
	<polygon stroke="#000000" stroke-miterlimit="10" points="-792.6,17 -790.7,19.7 -792.6,20 -794.6,20.5 -797.6,21.4 -800,22.5 
		-801.8,23.4 -802.9,24.1 -804,25 -804.9,26.1 -805.7,28 -805.7,29.3 -805.4,30.5 -804.9,31.2 -803.7,32.5 -802.1,33.7 -800.8,34.7 
		-799.5,35.8 -798.2,37.5 -797.1,39.1 -796.6,40.8 -796.3,42.9 -796.3,44.6 -796.6,45.9 -797.1,47.5 -798.2,49 -799.2,50.3 
		-800.7,51.6 -801.9,52.5 -803.4,53.3 -804.4,53.8 -805.7,54.3 -807.4,55 -809.2,55.4 -811.6,55.8 -814.1,53.3 -811.7,52.8 
		-810.2,52.3 -808.9,51.9 -807.1,51.2 -805.3,50.3 -802.7,48.5 -800.7,46.6 -799.8,45.4 -799.5,44.7 -799,43.4 -798.7,41.9 
		-798.6,40 -798.7,39.1 -799.1,38.3 -799.7,37.3 -800.4,36.5 -801.7,35.5 -802.4,35 -803.4,34.2 -805.7,31.8 -806.7,30.6 
		-807.5,29.1 -807.9,27.9 -808.1,26.3 -808,24.9 -807.5,23.8 -806.7,22.8 -805.6,21.7 -804.5,21 -802.9,20.1 -800.8,19.2 
		-798.2,18.4 -796.5,17.9 -795.2,17.6 -793.8,17.2 	"/>
	<polygon stroke="#000000" stroke-miterlimit="10" points="-772.7,17.2 -774,16.1 -775.3,15.4 -776.8,15 -778.7,14.8 -780.4,15.1 
		-781.6,15.6 -782.9,16.2 -785,17.9 -786.4,19.2 -788.4,21.6 -789.6,23.8 -790.9,26.8 -791.9,29.2 -792.6,31.3 -793.2,33.8 
		-793.4,35.9 -793.3,38.1 -793.2,39.5 -792.7,41.3 -791.6,43.7 -790.4,44.9 -789.1,45.8 -787.7,46.4 -786.5,46.7 -785,46.7 
		-782.9,46.4 -781.3,45.8 -779.8,44.8 -778.4,43.5 -777.3,42.1 -776.4,40.6 -775.6,38.5 -775.2,36.6 -775.3,34.7 -775.7,33.5 
		-776.4,32.8 -777.4,32.7 -778.7,33.1 -779.7,33.8 -780.4,34.8 -780.9,36.2 -781.3,37.8 -780.4,37.6 -779.2,37.1 -778.7,37.1 
		-777.9,37.4 -777.4,38.2 -777.5,39.3 -778.2,40.2 -778.6,40.6 -779.5,41.3 -780.4,41.9 -781.9,42.2 -782.9,42.4 -784.2,42.4 
		-785.4,42.2 -786.5,41.8 -787.7,41.2 -788.8,40.6 -789.6,39.5 -790.3,38.4 -790.8,37.3 -791.1,35.9 -791.2,34.7 -791.2,33.9 
		-791.2,33.1 -791.2,32 -791.2,30.8 -791,29.6 -790.8,28.3 -790.2,26.8 -789.6,25.7 -788.9,24.6 -788.4,23.8 -787.4,22.9 -786.4,22 
		-785.4,21.4 -784.7,20.9 -783.4,20.2 -781.9,19.5 -780.7,19.3 -779.7,19.2 -778.6,19.4 -777.6,19.7 -776.6,20 -775.7,20.5 
		-774.8,21 	"/>
</g>
<g>
	<circle fill="#6294BD" cx="-520" cy="32" r="31"/>
	<g>
		<circle fill="none" stroke="#FFD364" stroke-miterlimit="10" cx="-520" cy="32" r="31"/>
		<circle fill="none" stroke="#FFD364" stroke-miterlimit="10" cx="-520" cy="32" r="23.5"/>
		<path id="SVGID_x5F_2_x5F_" fill="none" d="M-494.4,32.4c0,14-11.4,25.4-25.4,25.4s-25.4-11.4-25.4-25.4S-533.8,7-519.8,7
			S-494.4,18.4-494.4,32.4z"/>
		<text>		<textPath  xlink:href="#SVGID_x5F_2_x5F_" startOffset="76.172%">
<tspan  fill="#FFD364" font-family="'Arial-BoldMT'" font-size="7.1132">K</tspan><tspan  fill="#FFD364" font-family="'ArialMT'" font-size="7.1132">unst</tspan><tspan  fill="#FFD364" font-family="'Arial-BoldMT'" font-size="7.1132">T</tspan><tspan  fill="#FFD364" font-family="'ArialMT'" font-size="7.1132">urn</tspan><tspan  fill="#FFD364" font-family="'Arial-BoldMT'" font-size="7.1132">V</tspan><tspan  fill="#FFD364" font-family="'ArialMT'" font-size="7.1132">ereinigung</tspan>		</textPath>
</text>
		<path id="SVGID_x5F_3_x5F_" fill="none" d="M-551,31.7c0.7,17.1,15.1,30.4,32.2,29.7c17.1-0.7,30.4-15.1,29.7-32.2"/>
		<text>		<textPath  xlink:href="#SVGID_x5F_3_x5F_" startOffset="22.189%">
<tspan  fill="#FFD364" font-family="'Arial-BoldMT'" font-size="6.5901">Ruhr-West e.V.</tspan>		</textPath>
</text>
	</g>
	<g>
		<polygon fill="none" stroke="#FFD364" stroke-miterlimit="10" points="-525.6,22.4 -505.5,20.9 -519.2,23.6 -521,36 -520.6,23.2 
			-528.4,23.5 -519.2,16.3 		"/>
		<circle fill="none" stroke="#FFD364" stroke-miterlimit="10" cx="-529.6" cy="22.8" r="1.2"/>
	</g>
	<g>
		<line fill="none" stroke="#FFD364" stroke-width="2" stroke-miterlimit="10" x1="-536.5" y1="47.2" x2="-527.3" y2="38"/>
		<polygon fill="#6294BD" stroke="#FFD364" stroke-miterlimit="10" points="-533.4,40.1 -525.7,45.4 -532.3,38.9 -525.7,32.2 
			-532.4,36.8 -533.7,30.3 -533.7,37.5 		"/>
		<circle fill="none" stroke="#FFD364" stroke-miterlimit="10" cx="-533.1" cy="29.4" r="1.2"/>
		<line fill="none" stroke="#FFD364" stroke-miterlimit="10" x1="-533.7" y1="36.8" x2="-533.7" y2="44.2"/>
	</g>
	<g>
		<circle fill="none" stroke="#FFD364" stroke-miterlimit="10" cx="-512.9" cy="29.5" r="1.2"/>
		<line fill="none" stroke="#FFD364" stroke-miterlimit="10" x1="-510.7" y1="41.9" x2="-510.1" y2="45.1"/>
		<polygon fill="none" stroke="#FFD364" stroke-miterlimit="10" points="-510.4,43.7 -512.9,30.7 -509.4,39.4 -501.4,30.9 		"/>
		<line fill="none" stroke="#FFD364" stroke-miterlimit="10" x1="-515.1" y1="45.5" x2="-503.4" y2="40"/>
		<line fill="none" stroke="#FFD364" stroke-miterlimit="10" x1="-514.4" y1="47.1" x2="-502.7" y2="41.6"/>
	</g>
</g>
<g>
	<path fill="#DD363A" d="M-275.5,32c0,17.4,14.1,31.5,31.5,31.5c17.4,0,31.5-14.1,31.5-31.5S-226.6,0.5-244,0.5
		C-261.4,0.5-275.5,14.6-275.5,32"/>
	<path fill="#FFFFFF" d="M-274.5,32c0-16.8,13.7-30.5,30.5-30.5c16.8,0,30.5,13.7,30.5,30.5c0,16.8-13.7,30.5-30.5,30.5
		C-260.8,62.5-274.5,48.8-274.5,32"/>
	<path fill="#DD363A" d="M-273.1,32c0,16,13,29.1,29.1,29.1c16,0,29.1-13,29.1-29.1c0-16-13-29.1-29.1-29.1
		C-260,2.9-273.1,16-273.1,32"/>
	<path fill="#FFFFFF" d="M-268.2,32c0-13.3,10.8-24.2,24.2-24.2c13.3,0,24.2,10.8,24.2,24.2s-10.8,24.2-24.2,24.2
		C-257.3,56.2-268.2,45.3-268.2,32"/>
	<path fill="#DD363A" d="M-232,33.3c1,0.4,3.5,1.6,7.7,1.7c2.8,0.1,3.9-1.7,3-2c-0.4-0.1-8.4-2.4-8.4-2.4s-1-0.4-0.3-0.5
		c0.7-0.1,4.1,0,5.5-0.6c1.7-0.7,2.1-2.3,1.6-2.3c-3.5,0.2-6.8,0.1-7,0.1c0,0,0,0-0.1,0c0,0-0.4-0.1,0-0.4c0.4-0.3,2.9-2.4,3.4-3
		c1.4-1.4,0.4-3.4,0.2-3.2c-2.3,2.2-5.3,3.9-5.5,4c-0.2,0-0.1-0.4,0-0.7c0.1-0.3,0.9-1.2,1.2-2.2c0.7-2.5,0.5-4.1-0.9-4.7
		c-0.3-0.1-0.4,0-0.7,0.8c-0.3,0.8-0.5,2.2-1.7,2.7c-0.7,0.3-1.9,1.4-1.9,1.8c0,0.4,0.2,1.1-0.1,1.4c-0.3,0.2-0.7-0.1-1.1,0.2
		c-0.4,0.3-1.6,1.5-2,1.8c-0.4,0.3-1.2,0.8-1.7,0.5c-1.1-1.1-0.6-4.4-0.6-4.4s0.4,0.1,0.8,0c1.1-0.2,1.2-1.5,1.1-1.7
		c-0.1,0.1-0.4,0.4-0.9,0.4c-0.5,0-0.6-0.1-0.7-0.6c-0.1-0.4-0.2-0.6,0-1.3c0.2-0.7,0.9-1,1.3-1.3c0.4-0.3,0.2-1.5,0.2-1.5
		s-0.2,0.4-0.4,0.6c-0.4,0.4-0.9,0.3-2,0.2c-1.1-0.1-1.6-0.5-1.7-0.7c-0.2-0.2-1.6-0.1-2,0c-0.4,0-2.2,0.4-2.9,0.6
		c-0.7,0.3-1.6,0.6-1.8,0.8c-0.2,0.2-0.2,0.4-0.2,0.4l0.2,0.6c0,0,0.8-0.6,1.6-0.8c0.8-0.2,0.9,0.2,1,0.5c0.1,0.4,0.1,0.5,0.2,0.8
		c-0.3,0.1-1.5,0.2-2.6,0.2c-1.3-0.1-1.3-0.6-1.3-0.9c0-0.1-0.4,0-0.5,0.3c-0.3,0.6-0.3,1.5,2.2,1.5c1,0,2-0.4,2.3-0.5
		c0.2,0.7,0,0.8-0.3,0.8c-1.2,0.2-1.9-0.1-1.9-0.1s-0.2,0.6,0,0.7c0.7,0.6,2.3,0.6,2.5,0.5c0.3,0,0.5-0.2,0.6-0.1
		c0.1,0.1,0.3,0.8,0.4,1c0,0.2,0,0.4-0.7,0.3c-0.6,0-0.9,0-0.8,0.1c0,0.1,0.7,0.6,0.8,0.8c0.1,0.1,0.8-0.5,0.8-0.5s0,0.1,0,0.4
		c0.1,0.3,0.2,2.4-1.1,3c-0.5,0.3-1.3-0.2-1.7-0.5c-0.4-0.3-1.6-1.5-2-1.8c-0.4-0.3-0.9,0-1.1-0.2c-0.3-0.2-0.1-0.9-0.1-1.4
		c0-0.4-1.2-1.6-1.9-1.8c-1.3-0.5-1.4-1.9-1.7-2.7c-0.3-0.8-0.4-0.9-0.7-0.8c-1.4,0.6-1.6,2.2-0.9,4.7c0.3,1,1.1,1.9,1.2,2.2
		c0.1,0.3,0.2,0.7,0,0.7c-0.2,0-3.2-1.7-5.5-4c-0.2-0.2-1.2,1.8,0.2,3.2c0.5,0.5,3.1,2.6,3.4,3c0.3,0.3,0,0.4,0,0.4c0,0,0,0-0.1,0
		c-0.2,0-3.5,0.1-7-0.1c-0.4,0-0.1,1.6,1.6,2.3c1.4,0.6,4.8,0.6,5.5,0.6c0.7,0.1-0.3,0.5-0.3,0.5s-8.1,2.3-8.4,2.4
		c-0.9,0.3,0.2,2.1,3,2c4.2-0.1,6.7-1.3,7.7-1.7c1-0.4,0.4,0.3,0.2,0.5c-1.5,1.1-6,4.1-8.1,5.5c-0.3,0.2-0.3,0.4,0,0.8
		c1.7,1.8,4.8-0.3,6-0.9c1.4-0.8,4.9-3.4,5.1-3.1c0.1,0.1-0.1,1.1-2.2,3.3c0.3,0.3,0.7,0.6,0.7,0.6s-1,1.2-1.7,2
		c-0.3,0.3-0.9,1-1.1,0.9c-0.2,0-1.1-1-1.4-1c-0.2,0-0.6,0.3-0.9,0.1c-0.2-0.1-0.8,0-1.3,0.2c-0.5,0.2-0.4,1.4-0.3,0.9
		c0.1-0.5,1.1-0.5,1.6,0.1c0.2,0.2,0.6,0.5,0.9,0.6c0.3,0.1,0.4,0.2,0.3,0.2c-0.1,0.1-0.9,0.3-1.6,0.7c-0.1,0.2-0.1,0.3-0.1,0.4
		c-0.7,0.3-0.9,0.5-0.7,1.2c0,0.1,0,0.1,0.2,0.5c0.1-0.2,0.1-0.8,0.7-1c0.1,0,0.2,0.1,0.3,0.1c0.3,0,1.3-0.6,1.5-0.8
		c0.2-0.2,0.1,0.1,0,0.4c-0.6,1.1-0.4,1.7-0.3,1.7c0.1,0,0.2,0,0.3,0.2c0.4,1,1.4,1.7,1.2,1.5c-0.2-0.2-0.4-1.6-0.3-1.6
		c0.1-0.1,0.2,0,0.3-0.1c0.1-0.1,0.3-0.7,0.3-0.9c0-0.4-0.3-0.6-0.3-0.9c0-0.3,0.2-0.6,0.2-0.6s0.3,0.6,0.6,0.9
		c0.5,0.6,0.4,0.7,1,0.5c0.1,0,0.9,1.2,0.9,1.2s0.3-0.7,0.1-1.1c-0.1-0.2-0.3-0.3-0.4-0.5c-0.1-0.2,0.3-0.4,0.1-0.7
		c-1.1-1-1.2-0.7-1.5-1.4c-0.2-0.5,0.2-0.8,0.6-1.2c1-1.1,1-1.1,1.5-1.8c0.2,0.2,0.4,0.3,0.7,0.5c1.1-1.6,2-3,3-3.3
		c1-0.4,1.4,0.2,1.4,0.8c0,1.1-2.2,3.3-2.2,3.3c-1,1.1-1.7,1.6-2.1,2.3h0h0c-0.2,0.3-0.3,0.6-0.3,1c-0.1,0.4,0,1,0.1,1.4v0
		c0.1,0.4,0.2,0.8,0.2,0.8s0.3-1.1,0.4-1.3c0.2-0.4,0.2,0,0.5,0.8c0.3,0.8,0.9,1.7,0.9,1.7l0-2c0-0.5,0.1-1.2,0.3-0.7
		c0.2,0.5,1,1.6,1,1.6s0-0.4,0-0.9h0l0,0c0-0.4,0.4-2.1,0.6-2.4h0l0,0c0.2-0.3,0.8-1.5,1.7-1.6c0.8-0.1,0.9,1.4,0.8,1.7
		c-0.1,0.6-0.3,1.3-0.5,1.6c-0.1,0.2-0.7,1.4-0.8,1.6c-0.9,2.5,1,4,1,3.9c0-0.1,0.2-1.8,0.5-2.3c0.2-0.2,0.4-0.4,0.6-0.2
		c0.2,0.3,0.8,1.5,1.5,2.3v0c0,0,0,0,0,0v0v0c0.8-0.8,1.3-2,1.5-2.3c0.2-0.2,0.4-0.1,0.6,0.2c0.3,0.4,0.5,2.1,0.5,2.3
		c0,0.1,1.9-1.4,1-3.9c-0.1-0.2-0.7-1.5-0.8-1.6c-0.1-0.3-0.4-1-0.5-1.6c-0.1-0.3,0-1.8,0.9-1.7c0.8,0.1,1.5,1.3,1.7,1.6l0,0h0
		c0.2,0.3,0.5,1.9,0.6,2.4l0,0h0c0,0.5,0,0.9,0,0.9s0.7-1.1,1-1.6c0.2-0.5,0.3,0.2,0.3,0.7l0,2c0,0,0.6-1,0.9-1.7
		c0.3-0.8,0.3-1.2,0.5-0.8c0.1,0.1,0.4,1.3,0.4,1.3s0.1-0.3,0.2-0.8h0l0,0c0.1-0.5,0.2-1,0.1-1.4c-0.1-0.4-0.2-0.7-0.3-1h0h0
		c-0.4-0.7-1.1-1.3-2.1-2.3c0,0-2.1-2.3-2.2-3.3c0-0.6,0.4-1.2,1.4-0.8c1,0.4,1.9,1.8,3,3.3c0.3-0.2,0.5-0.4,0.7-0.5
		c0.6,0.7,0.6,0.7,1.5,1.8c0.4,0.5,0.7,0.8,0.6,1.2c-0.3,0.7-0.4,0.3-1.5,1.4c-0.2,0.3,0.2,0.5,0.1,0.7c-0.1,0.2-0.3,0.3-0.4,0.5
		c-0.1,0.5,0.1,1.1,0.1,1.1s0.8-1.2,0.9-1.2c0.6,0.2,0.5,0.1,1-0.5c0.3-0.3,0.6-0.9,0.6-0.9s0.2,0.3,0.2,0.6c0,0.3-0.2,0.4-0.3,0.9
		c0,0.2,0.2,0.8,0.3,0.9c0.1,0.1,0.2,0,0.3,0.1c0.1,0.1-0.1,1.4-0.3,1.6c-0.2,0.2,0.9-0.4,1.2-1.5c0.1-0.2,0.2-0.1,0.3-0.2
		c0.1,0,0.3-0.7-0.3-1.7c-0.1-0.2-0.2-0.6,0-0.4c0.2,0.2,1.2,0.8,1.5,0.8c0.1,0,0.3-0.1,0.3-0.1c0.7,0.2,0.6,0.8,0.7,1
		c0.2-0.5,0.2-0.5,0.2-0.5c0.2-0.7,0.1-1-0.7-1.2c-0.1-0.1,0-0.2-0.1-0.4c-0.7-0.5-1.5-0.7-1.6-0.7c-0.1-0.1,0-0.2,0.3-0.2
		c0.3-0.1,0.8-0.4,0.9-0.6c0.5-0.6,1.4-0.6,1.6-0.1c0.1,0.5,0.2-0.6-0.3-0.9c-0.5-0.2-1.1-0.3-1.3-0.2c-0.3,0.2-0.7-0.1-0.9-0.1
		c-0.3,0-1.2,1-1.4,1c-0.2,0-0.8-0.6-1.1-0.9c-0.7-0.8-1.7-2-1.7-2s0.4-0.3,0.7-0.6c-2.1-2.3-2.3-3.2-2.2-3.3
		c0.3-0.3,3.7,2.3,5.1,3.1c1.2,0.7,4.4,2.7,6,0.9c0.3-0.4,0.3-0.6,0-0.8c-2.1-1.4-6.6-4.4-8.1-5.5C-232.4,33.6-233,32.9-232,33.3"/>
	<path fill="#DD363A" d="M-240.1,11.5c0,0-2.3,1-2.5,1.1c-0.4-0.3-1.5-1.4-1.7-1.5v0c0,0,0,0,0,0c0,0,0,0,0,0v0
		c-0.1,0.1-1.3,1.1-1.7,1.5c-0.2-0.2-2.5-1.1-2.5-1.1c0,0,0.6,1,1,1.6c0.4,0.7,0.3,1.6,0.3,1.6h5.7c0,0-0.1-0.9,0.3-1.6
		C-240.7,12.4-240.1,11.5-240.1,11.5"/>
	<path fill="#FFFFFF" d="M-246.1,17.6c0,0.2,0.3,1,0.3,1l1.5-1.2C-244.4,17.4-245.2,17.1-246.1,17.6"/>
	<path fill="#FFFFFF" d="M-234.5,26.8c1.6-1.4,1.1-2.6,1.1-2.6h0c0,0-1.3,0.3-1.3,2.5c-1.3-1-2.2-0.8-2.2-0.8l0,0c0,0,0.3,0.9,2,1.2
		c-1.8,3.1-3.5,3.5-4.8,3.8c0,0.1,0,0.2,0,0.7c1,0,3.1-0.8,5.1-4.3c1.3,1.1,2.2,0.8,2.2,0.8l0,0C-232.5,28-232.9,27.2-234.5,26.8"/>
	<path fill="#FFFFFF" d="M-246.9,28.7c0,1.5,0.2,2.7,0.4,3.8c0.5,2.4,1.2,4,1.8,4.9c0.4,0.6,0.7,0.9,0.7,1v0c0,0,0,0,0,0
		c0,0,0,0,0,0s0,0,0,0c0.1-0.1,0.3-0.4,0.7-1c0.6-0.9,1.3-2.5,1.8-4.9c0.2-1.1,0.4-2.3,0.4-3.8C-241.1,28.7-246.9,28.7-246.9,28.7"
		/>
	<path fill="#FFFFFF" d="M-248.3,30.9c-1.3-0.2-3-0.6-4.8-3.8c1.7-0.3,2-1.2,2-1.2l0,0c0,0-0.9-0.2-2.2,0.8
		c-0.1-2.2-1.3-2.5-1.3-2.5h0c0,0-0.5,1.2,1.1,2.6c-1.6,0.3-2,1.2-2,1.2v0c0,0,0.9,0.3,2.2-0.8c1.9,3.5,4.1,4.3,5.1,4.3
		C-248.3,31.1-248.3,31-248.3,30.9"/>
	<polygon fill="#DD363A" points="-244.3,34.1 -244.3,32.7 -242.6,32.7 -242.6,31.9 -244.3,31.9 -244.3,30.7 -242.6,30.7 -242.6,30 
		-245.4,30 -245.4,34.9 -242.4,34.9 -242.4,34.1 	"/>
</g>
<g>
	<text transform="matrix(1 0 0 0.85 0.4997 32.1482)" fill="#98191D" font-family="'Helvetica-Bold'" font-size="18.8162">KTV</text>
	<text transform="matrix(1 0 0 0.85 0.4997 44.5979)" fill="#314D68" font-family="'Helvetica'" font-size="9.9456">HOHENLOHE</text>
	<g>
		<path fill="#BE1622" stroke="#BE1622" stroke-miterlimit="10" d="M44.9,22l3.5-4.2c0,0,2.1-2.7,2.5-2.4c0.6,0.4,0.5,2,0.9,2.5
			c0.4,0.5,3.9-1.3,4.6-1.5c1.1-0.4,2.4-0.7,2.8-0.7c0.5-0.1,2.7-0.4,3.5-0.3c0.7,0.1-2.2,0.9-4.5,1.9c-1,0.5-2.8,1.2-3.7,1.6
			c-0.5,0.2-2.1,0.7-2.2,1.3c-0.2,1-0.1,1.6-0.2,2.4c-0.1,1-0.5,2.1-1.2,3.3c-0.5,1-1.2,2-1.5,2.7c-0.3,0.5-1.4,1.9-1.4,1.9
			l-1.3,1.7c0,0-1.1,1.1-1.4,1.4c-0.4,0.4-1.6,1.7-1.7,1.4c-0.1-0.2,2.7-4.1,2.7-4.1l1.7-2.9l1.3-3.9c0,0,0.5-2.4,0.4-3.2
			c-0.1-0.9-0.8-0.5-1.1-0.4c-0.3,0.1-1,0.8-1,0.8l-1.1,1c0,0-1.9,1.8-2.4,1.2C43.9,23.4,44.9,22,44.9,22z"/>
		<circle fill="#BE1622" stroke="#BE1622" stroke-miterlimit="10" cx="46.4" cy="27.5" r="1.1"/>
	</g>
</g>
</svg>
