<?xml version="1.0" encoding="utf-8"?>
<!-- Generator: Adobe Illustrator 16.0.0, SVG Export Plug-In . SVG Version: 6.00 Build 0)  -->
<!DOCTYPE svg PUBLIC "-//W3C//DTD SVG 1.1//EN" "http://www.w3.org/Graphics/SVG/1.1/DTD/svg11.dtd">
<svg version="1.1" xmlns="http://www.w3.org/2000/svg" xmlns:xlink="http://www.w3.org/1999/xlink" x="0px" y="0px" width="841.9px"
	 height="595.3px" viewBox="0 0 841.9 595.3" style="enable-background:new 0 0 841.9 595.3;" xml:space="preserve">
<style type="text/css">
<![CDATA[
	.st0{fill:none;}
	.st1{stroke:#000000;stroke-miterlimit:10;}
	.st2{fill:#DD0B2F;}
]]>
</style>
<g id="Ebene_1">
	<path class="st0" d="M155,49c-6.9-2.1-14.8-1-22-1"/>
	<path class="st0" d="M183,71c3.1,8.3,1,21,1,30"/>
	<g>
		<polygon points="362,308.4 373.3,308.4 373.3,291.8 397.4,291.8 397.4,283.9 373.3,283.9 373.3,274.9 399.1,274.9 399.1,267 
			362,267 		"/>
		<g>
			<path d="M405.2,293.6c0,4.6,0.6,16,21.8,16s21.8-11.4,21.8-16V267h-11.3v23.8c0,4.1-0.2,10.9-10.5,10.9
				c-10.3,0-10.5-6.8-10.5-10.9V267h-11.3V293.6z"/>
		</g>
		<polygon points="457,308.4 493.5,308.4 493.5,300.2 468.3,300.2 468.3,267 457,267 		"/>
		<g>
			<path d="M536.6,287.3c0,8.8-3.5,13.2-11.1,13.2h-12.9v-25.6h11.8C533.3,274.9,536.6,279.7,536.6,287.3 M548.6,287.7
				c0-12.5-6.3-20.7-20.9-20.7h-26.5v41.4h27.6C542,308.4,548.6,300.2,548.6,287.7"/>
		</g>
		<path d="M583.5,292.4h-13.7l6.9-16.4L583.5,292.4z M603,308.4L583.8,267h-14.3l-19.2,41.4H563l3.6-8.5h20.1l3.6,8.5H603z"/>
		<polygon points="540.3,230 540,228.7 540,228.8 528,170 504,170 520.1,230 		"/>
		<polygon points="479.3,189.7 499.4,189.7 499.4,170 437,170 437,189.7 457,189.7 457,230 479.3,230 		"/>
		<polygon points="404.8,207.5 432.3,170 405.7,170 384.7,204.3 384.7,170 362.5,170 362.5,230 385.2,230 389.3,224 392.6,230 
			418.7,230 		"/>
		<rect x="457" y="234.9" class="st2" width="22.3" height="20.6"/>
		<polygon class="st2" points="406.6,255.5 434.4,255.5 421.6,234.9 395.2,234.9 		"/>
		<rect x="362.5" y="234.9" class="st2" width="22.2" height="20.6"/>
		<g>
			<polyline class="st2" points="541.2,234.6 520.8,234.6 526.7,255.7 547.6,255.7 			"/>
		</g>
		<path class="st2" d="M559.6,236.2c-0.7,2.1-1.4,4.2-2.2,6.3c-0.5,1.3-0.9,2.7-1.5,4.1c-0.8,1.8-2.3,3.2-3.3,2.5
			c-1.2-0.9-0.2-4.7,0.4-6.8c0.8-2.5,1.5-5,2.2-7.4C556.8,235.2,558.3,235.6,559.6,236.2z"/>
		<path class="st1" d="M563.2,202.3c0.5-2.9,1.8-5.5,3.5-7.8c0.9-1.2,1.7-1.9,2.8-2.9c1.9-1.7,3-4.4,4.4-6.5c0.6-1,1.1-2.1,1.6-3.2
			c1-2.2,1.8-4.7,3.2-6.6c2-2.8,3.6-6,5.6-8.7c2-2.7,4.1-5.3,6-8.1c2-3,3.6-6.5,5.3-9.7c0.9-1.7,1.8-3.3,2.6-5
			c0.4-0.8,0.7-1.9,1.2-2.6c0.6-0.9,2.2-1.5,2.8-0.3c0.5,1-0.4,3.3-0.6,4.4c-0.3,1.3-0.4,2.5,0,3.7c0.5,1.6,0.4,2.1-1,3
			c-2.7,2-3.5,4.7-4.8,7.6c-0.8,1.6-1.4,3.6-2.5,5c-1,1.3-2.4,2.4-3.3,3.9c-0.9,1.4-1.4,3-2,4.6c-0.6,1.8-1.1,3.7-1.7,5.6
			c-0.3,1-0.6,1.8-0.5,2.8c0.1,1,0.4,1.8,0.4,2.8c0,0.9-0.3,1.8-0.7,2.6c-0.9,1.9-3,3-4.4,4.6c-1.3,1.5-2.5,2.9-3.5,4.6
			c-0.9,1.6-1.4,3.4-2.1,5.1c-1.2,2.9-2.3,6.3-4.2,8.9c-0.7,1-1.8,1.9-2.3,3.1c0.9,0.8,1.5,2.5,1.8,3.7c0.4,1.5-0.4,3.1-1.3,4.4
			c-1,1.3-3.8,2.8-5.3,3.4c-0.7,0.3-1.4,0.1-2,0.6c-1,0.8-1.3,3.2-1.7,4.4c-0.2,0.5-0.3,0.9-0.4,1.4c-1.2-0.5-2.3-1-3.6-1.3
			c0.1-0.4,0.2-0.9,0.2-1.3c0.3-1.5,0.5-3,0.9-4.4c0.2-0.6,0.5-1.3,0.6-2c0-0.6-0.3-1.1-0.4-1.7c-0.2-1.7,0.9-3.8,1.2-5.5
			c0.3-1.5,0.4-3.1,1.4-4.3c0.8-1,2.1-1.5,2.5-2.8C563.6,205.9,562.9,204.1,563.2,202.3z"/>
		<g>
			<polyline class="st2" points="541.2,245.2 556.6,245.2 552.2,255.7 536.5,255.7 			"/>
		</g>
	</g>
</g>
<g id="Ebene_2">
</g>
</svg>
