<?xml version="1.0" encoding="utf-8"?>
<!-- Generator: Adobe Illustrator 16.0.0, SVG Export Plug-In . SVG Version: 6.00 Build 0)  -->
<!DOCTYPE svg PUBLIC "-//W3C//DTD SVG 1.1//EN" "http://www.w3.org/Graphics/SVG/1.1/DTD/svg11.dtd">
<svg version="1.1" id="Ebene_1" xmlns="http://www.w3.org/2000/svg" xmlns:xlink="http://www.w3.org/1999/xlink" x="0px" y="0px"
	 width="65px" height="65px" viewBox="0 0 65 65" style="enable-background:new 0 0 65 65;" xml:space="preserve">
<style type="text/css">
<![CDATA[
	.st0{fill:#010202;stroke:#010202;stroke-miterlimit:10;}
	.st1{fill:#FFFFFF;}
	.st2{fill:#010202;}
	.st3{fill:#DD1030;}
]]>
</style>
<g>
	<circle class="st1" cx="32.5" cy="32.5" r="32"/>
	<g>
		<polygon class="st2" points="7,50.1 9.4,50.1 9.4,46.6 14.5,46.6 14.5,45 9.4,45 9.4,43.1 14.9,43.1 14.9,41.4 7,41.4 		"/>
		<g>
			<path class="st2" d="M16.2,47c0,1,0.1,3.4,4.6,3.4c4.5,0,4.6-2.4,4.6-3.4v-5.6H23v5c0,0.9,0,2.3-2.2,2.3s-2.2-1.4-2.2-2.3v-5
				h-2.4V47z"/>
		</g>
		<polygon class="st2" points="27.1,50.1 34.8,50.1 34.8,48.4 29.5,48.4 29.5,41.4 27.1,41.4 		"/>
		<g>
			<path class="st2" d="M43.9,45.7c0,1.9-0.7,2.8-2.3,2.8h-2.7v-5.4h2.5C43.2,43.1,43.9,44.1,43.9,45.7 M46.5,45.8
				c0-2.6-1.3-4.4-4.4-4.4h-5.6v8.7h5.8C45.1,50.1,46.5,48.4,46.5,45.8"/>
		</g>
		<path class="st2" d="M53.8,46.8h-2.9l1.5-3.5L53.8,46.8z M58,50.1l-4.1-8.7h-3l-4.1,8.7h2.7l0.8-1.8h4.2l0.8,1.8H58z"/>
		<polygon class="st2" points="44.7,33.6 44.6,33.3 44.6,33.3 42.1,20.9 37,20.9 40.4,33.6 		"/>
		<polygon class="st2" points="31.8,25.1 36.1,25.1 36.1,20.9 22.9,20.9 22.9,25.1 27.1,25.1 27.1,33.6 31.8,33.6 		"/>
		<polygon class="st2" points="16.1,28.8 21.9,20.9 16.3,20.9 11.8,28.1 11.8,20.9 7.2,20.9 7.2,33.6 11.9,33.6 12.8,32.3 
			13.5,33.6 19,33.6 		"/>
		<rect x="27.1" y="34.6" class="st3" width="4.7" height="4.4"/>
		<polygon class="st3" points="16.5,39 22.3,39 19.6,34.6 14.1,34.6 		"/>
		<rect x="7.2" y="34.6" class="st3" width="4.7" height="4.4"/>
		<g>
			<polyline class="st3" points="44.9,34.5 40.6,34.5 41.8,39 46.2,39 			"/>
		</g>
		<path class="st3" d="M48.8,34.9c-0.1,0.4-0.3,0.9-0.5,1.3c-0.1,0.3-0.2,0.6-0.3,0.9c-0.2,0.4-0.5,0.7-0.7,0.5
			c-0.3-0.2,0-1,0.1-1.4c0.2-0.5,0.3-1.1,0.5-1.6C48.2,34.7,48.5,34.8,48.8,34.9z"/>
		<path class="st0" d="M49.5,27.7c0.1-0.6,0.4-1.2,0.7-1.6c0.2-0.3,0.4-0.4,0.6-0.6c0.4-0.4,0.6-0.9,0.9-1.4
			c0.1-0.2,0.2-0.4,0.3-0.7c0.2-0.5,0.4-1,0.7-1.4c0.4-0.6,0.8-1.3,1.2-1.8c0.4-0.6,0.9-1.1,1.3-1.7c0.4-0.6,0.8-1.4,1.1-2
			c0.2-0.4,0.4-0.7,0.5-1.1c0.1-0.2,0.1-0.4,0.3-0.5c0.1-0.2,0.5-0.3,0.6-0.1c0.1,0.2-0.1,0.7-0.1,0.9c-0.1,0.3-0.1,0.5,0,0.8
			c0.1,0.3,0.1,0.4-0.2,0.6c-0.6,0.4-0.7,1-1,1.6c-0.2,0.3-0.3,0.8-0.5,1.1c-0.2,0.3-0.5,0.5-0.7,0.8c-0.2,0.3-0.3,0.6-0.4,1
			c-0.1,0.4-0.2,0.8-0.4,1.2c-0.1,0.2-0.1,0.4-0.1,0.6c0,0.2,0.1,0.4,0.1,0.6c0,0.2-0.1,0.4-0.1,0.5c-0.2,0.4-0.6,0.6-0.9,1
			c-0.3,0.3-0.5,0.6-0.7,1c-0.2,0.3-0.3,0.7-0.4,1.1c-0.3,0.6-0.5,1.3-0.9,1.9c-0.1,0.2-0.4,0.4-0.5,0.7c0.2,0.2,0.3,0.5,0.4,0.8
			c0.1,0.3-0.1,0.7-0.3,0.9c-0.2,0.3-0.8,0.6-1.1,0.7c-0.1,0.1-0.3,0-0.4,0.1c-0.2,0.2-0.3,0.7-0.4,0.9c0,0.1-0.1,0.2-0.1,0.3
			c-0.3-0.1-0.5-0.2-0.8-0.3c0-0.1,0-0.2,0-0.3c0.1-0.3,0.1-0.6,0.2-0.9c0-0.1,0.1-0.3,0.1-0.4c0-0.1-0.1-0.2-0.1-0.4
			c0-0.4,0.2-0.8,0.3-1.2c0.1-0.3,0.1-0.7,0.3-0.9c0.2-0.2,0.4-0.3,0.5-0.6C49.6,28.5,49.5,28.1,49.5,27.7z"/>
		<g>
			<polyline class="st3" points="44.9,36.8 48.2,36.8 47.2,39 43.9,39 			"/>
		</g>
	</g>
</g>
</svg>
