<?xml version="1.0" encoding="utf-8"?>
<!-- Generator: Adobe Illustrator 16.0.0, SVG Export Plug-In . SVG Version: 6.00 Build 0)  -->
<!DOCTYPE svg PUBLIC "-//W3C//DTD SVG 1.1//EN" "http://www.w3.org/Graphics/SVG/1.1/DTD/svg11.dtd">
<svg version="1.1" id="Ebene_1" xmlns="http://www.w3.org/2000/svg" xmlns:xlink="http://www.w3.org/1999/xlink" x="0px" y="0px"
	 width="64px" height="64px" viewBox="0 0 64 64" style="enable-background:new 0 0 64 64;" xml:space="preserve">
<style type="text/css">
<![CDATA[
	.st0{stroke:#000000;stroke-miterlimit:10;}
	.st1{fill:#DD0B2F;}
]]>
</style>
<g>
	<polygon points="0.3,51.1 3.2,51.1 3.2,46.7 9.6,46.7 9.6,44.6 3.2,44.6 3.2,42.2 10,42.2 10,40.2 0.3,40.2 	"/>
	<g>
		<path d="M11.6,47.2c0,1.2,0.2,4.2,5.7,4.2c5.6,0,5.7-3,5.7-4.2v-7h-3v6.3c0,1.1,0,2.9-2.8,2.9c-2.7,0-2.8-1.8-2.8-2.9v-6.3h-3
			V47.2z"/>
	</g>
	<polygon points="25.3,51.1 34.9,51.1 34.9,48.9 28.3,48.9 28.3,40.2 25.3,40.2 	"/>
	<g>
		<path d="M46.2,45.5c0,2.3-0.9,3.5-2.9,3.5h-3.4v-6.8H43C45.4,42.2,46.2,43.5,46.2,45.5 M49.4,45.6c0-3.3-1.7-5.5-5.5-5.5h-7v10.9
			h7.3C47.7,51.1,49.4,48.9,49.4,45.6"/>
	</g>
	<path d="M58.6,46.8H55l1.8-4.3L58.6,46.8z M63.7,51.1l-5.1-10.9h-3.8l-5.1,10.9h3.4l0.9-2.2h5.3l0.9,2.2H63.7z"/>
	<polygon points="47.2,30.4 47.1,30.1 47.1,30.1 44,14.6 37.7,14.6 41.9,30.4 	"/>
	<polygon points="31.2,19.8 36.4,19.8 36.4,14.6 20,14.6 20,19.8 25.3,19.8 25.3,30.4 31.2,30.4 	"/>
	<polygon points="11.5,24.5 18.8,14.6 11.8,14.6 6.2,23.7 6.2,14.6 0.4,14.6 0.4,30.4 6.4,30.4 7.4,28.8 8.3,30.4 15.2,30.4 	"/>
	<rect x="25.3" y="31.7" class="st1" width="5.9" height="5.4"/>
	<polygon class="st1" points="12,37.1 19.3,37.1 16,31.7 9,31.7 	"/>
	<rect x="0.4" y="31.7" class="st1" width="5.9" height="5.4"/>
	<g>
		<polyline class="st1" points="47.5,31.6 42.1,31.6 43.6,37.2 49.1,37.2 		"/>
	</g>
	<path class="st1" d="M52.3,32.1c-0.2,0.6-0.4,1.1-0.6,1.7c-0.1,0.4-0.2,0.7-0.4,1.1c-0.2,0.5-0.6,0.9-0.9,0.7
		c-0.3-0.2-0.1-1.2,0.1-1.8c0.2-0.7,0.4-1.3,0.6-2C51.6,31.8,51.9,31.9,52.3,32.1z"/>
	<path class="st0" d="M53.3,23.1c0.1-0.8,0.5-1.4,0.9-2.1c0.2-0.3,0.4-0.5,0.7-0.8c0.5-0.4,0.8-1.2,1.1-1.7c0.2-0.3,0.3-0.6,0.4-0.8
		c0.3-0.6,0.5-1.2,0.8-1.7c0.5-0.8,0.9-1.6,1.5-2.3c0.5-0.7,1.1-1.4,1.6-2.1c0.5-0.8,0.9-1.7,1.4-2.6c0.2-0.5,0.5-0.9,0.7-1.3
		c0.1-0.2,0.2-0.5,0.3-0.7c0.2-0.2,0.6-0.4,0.7-0.1c0.1,0.3-0.1,0.9-0.2,1.2c-0.1,0.3-0.1,0.6,0,1c0.1,0.4,0.1,0.6-0.3,0.8
		c-0.7,0.5-0.9,1.2-1.3,2c-0.2,0.4-0.4,1-0.7,1.3c-0.3,0.4-0.6,0.6-0.9,1c-0.2,0.4-0.4,0.8-0.5,1.2c-0.2,0.5-0.3,1-0.4,1.5
		c-0.1,0.3-0.2,0.5-0.1,0.7c0,0.3,0.1,0.5,0.1,0.7c0,0.2-0.1,0.5-0.2,0.7c-0.2,0.5-0.8,0.8-1.2,1.2c-0.3,0.4-0.7,0.8-0.9,1.2
		c-0.2,0.4-0.4,0.9-0.6,1.3c-0.3,0.8-0.6,1.7-1.1,2.3c-0.2,0.3-0.5,0.5-0.6,0.8c0.2,0.2,0.4,0.7,0.5,1c0.1,0.4-0.1,0.8-0.4,1.2
		c-0.3,0.4-1,0.7-1.4,0.9c-0.2,0.1-0.4,0-0.5,0.2c-0.3,0.2-0.3,0.8-0.5,1.2c0,0.1-0.1,0.2-0.1,0.4c-0.3-0.1-0.6-0.3-0.9-0.3
		c0-0.1,0-0.2,0.1-0.3c0.1-0.4,0.1-0.8,0.2-1.2c0-0.2,0.1-0.4,0.1-0.5c0-0.2-0.1-0.3-0.1-0.4c0-0.5,0.2-1,0.3-1.4
		c0.1-0.4,0.1-0.8,0.4-1.1c0.2-0.3,0.6-0.4,0.7-0.7C53.4,24.1,53.2,23.6,53.3,23.1z"/>
	<g>
		<polyline class="st1" points="47.5,34.4 51.5,34.4 50.3,37.2 46.2,37.2 		"/>
	</g>
</g>
</svg>
