
<svg version="1.1" id="Ebene_1" xmlns="http://www.w3.org/2000/svg" xmlns:xlink="http://www.w3.org/1999/xlink" x="0px" y="0px"
	 viewBox="0 0 181.4 226.8" enable-background="new 0 0 181.4 226.8" xml:space="preserve">
<g>
	<path fill="#FBC019" stroke="#3C3C3B" stroke-width="5" stroke-miterlimit="10" d="M178.7,4H3v128.1h0c0,0.7,0,1.3,0,2
		c0,48.5,39.3,87.9,87.9,87.9s87.9-39.3,87.9-87.9c0-0.7,0-1.3,0-2h0V4z"/>
	<polygon fill="#E84031" points="32.8,14.6 144.5,14.6 144.5,49.7 123.9,49.7 123.9,34.7 101.4,34.1 101.7,110.1 80.4,110.1 
		79.8,34.7 55.6,34.4 55.6,49.4 32.8,49.4 	"/>
	<polygon fill="#E84031" points="23.8,73.7 66.3,73.7 83.2,141.1 95,141.1 116.3,73.7 155.6,73.7 155.6,92.6 130.4,92.9 105,164.5 
		72.3,164.5 50.4,92.3 23.8,92 	"/>
	<path id="SVGID_x5F_1_x5F_" fill="none" d="M3.1,134.4c1.7,47,40.4,84.6,87.8,84.6c46.9,0,85.2-36.7,87.7-83"/>
	<text>	<textPath  xlink:href="#SVGID_x5F_1_x5F_" startOffset="14.071%">
<tspan  font-family="'Arial-BoldMT'" font-size="32">HÖSBACH</tspan>	</textPath>
</text>
	<text transform="matrix(1 0 0 1 7.8911 123.9307)" font-family="'Arial-BoldMT'" font-size="32">18</text>
	<text transform="matrix(1 0 0 1 134.3985 123.9311)" font-family="'Arial-BoldMT'" font-size="32">95</text>
	<text transform="matrix(1 0 0 1 39.623 150.2762)" font-family="'ArialMT'" font-size="32">e.</text>
	<text transform="matrix(1 0 0 1 118.1343 150.2764)" font-family="'ArialMT'" font-size="32">v.</text>
</g>
</svg>
